<svg width="139" height="138" viewBox="0 0 139 138" fill="none" xmlns="http://www.w3.org/2000/svg">
<ellipse cx="54.6071" cy="83.1379" rx="54.6071" ry="54.8625" fill="#E6F1FF"/>
<path d="M60.719 17.0391C60.719 25.399 53.9754 32.1641 45.6714 32.1641C37.3674 32.1641 30.6238 25.399 30.6238 17.0391C30.6238 8.67915 37.3674 1.91406 45.6714 1.91406C53.9754 1.91406 60.719 8.67915 60.719 17.0391Z" fill="#E6F1FF" stroke="#2B90FB" stroke-width="3"/>
<path d="M47.5255 18.5935H39.9048V16.4273H47.4687C48.0795 16.4273 48.5814 16.3302 48.9744 16.1361C49.3721 15.942 49.6656 15.6721 49.855 15.3264C50.0492 14.9808 50.1439 14.576 50.1391 14.1119C50.1439 13.6574 50.0492 13.2502 49.855 12.8904C49.6656 12.5258 49.3768 12.2393 48.9886 12.031C48.605 11.8179 48.1173 11.7114 47.5255 11.7114H44.6704V24.0693H42.0425V9.52388H47.5255C48.6524 9.52388 49.6065 9.72748 50.3877 10.1347C51.169 10.5371 51.7608 11.084 52.1633 11.7753C52.5705 12.4619 52.7741 13.2336 52.7741 14.0906C52.7741 14.9808 52.5681 15.7644 52.1562 16.4415C51.7442 17.1138 51.1477 17.6418 50.3664 18.0253C49.5852 18.4041 48.6382 18.5935 47.5255 18.5935ZM47.8593 19.673V21.8392H39.9048V19.673H47.8593Z" fill="#2B90FB"/>
<path d="M73.2952 39.6494C73.2952 48.0093 66.5515 54.7744 58.2476 54.7744C49.9436 54.7744 43.2 48.0093 43.2 39.6494C43.2 31.2895 49.9436 24.5244 58.2476 24.5244C66.5515 24.5244 73.2952 31.2895 73.2952 39.6494Z" fill="#E6F1FF" stroke="#2B90FB" stroke-width="3"/>
<path d="M60.1017 41.2038H52.4809V39.0376H60.0448C60.6556 39.0376 61.1575 38.9406 61.5505 38.7464C61.9483 38.5523 62.2418 38.2824 62.4312 37.9368C62.6253 37.5911 62.72 37.1863 62.7153 36.7223C62.72 36.2678 62.6253 35.8606 62.4312 35.5007C62.2418 35.1361 61.953 34.8497 61.5647 34.6413C61.1812 34.4283 60.6935 34.3217 60.1017 34.3217H57.2466V46.6797H54.6187V32.1342H60.1017C61.2286 32.1342 62.1826 32.3378 62.9639 32.745C63.7451 33.1475 64.337 33.6944 64.7394 34.3857C65.1466 35.0722 65.3502 35.844 65.3502 36.701C65.3502 37.5911 65.1443 38.3748 64.7323 39.0518C64.3204 39.7242 63.7238 40.2521 62.9426 40.6357C62.1613 41.0144 61.2144 41.2038 60.1017 41.2038ZM60.4355 42.2834V44.4496H52.4809V42.2834H60.4355Z" fill="#2B90FB"/>
<path d="M48.8047 39.6494C48.8047 48.0093 42.0611 54.7744 33.7571 54.7744C25.4531 54.7744 18.7095 48.0093 18.7095 39.6494C18.7095 31.2895 25.4531 24.5244 33.7571 24.5244C42.0611 24.5244 48.8047 31.2895 48.8047 39.6494Z" fill="#E6F1FF" stroke="#2B90FB" stroke-width="3"/>
<path d="M35.6112 41.2038H27.9904V39.0376H35.5544C36.1652 39.0376 36.6671 38.9406 37.0601 38.7464C37.4578 38.5523 37.7513 38.2824 37.9407 37.9368C38.1349 37.5911 38.2296 37.1863 38.2248 36.7223C38.2296 36.2678 38.1349 35.8606 37.9407 35.5007C37.7513 35.1361 37.4625 34.8497 37.0743 34.6413C36.6907 34.4283 36.203 34.3217 35.6112 34.3217H32.7561V46.6797H30.1282V32.1342H35.6112C36.7381 32.1342 37.6922 32.3378 38.4734 32.745C39.2547 33.1475 39.8465 33.6944 40.249 34.3857C40.6562 35.0722 40.8598 35.844 40.8598 36.701C40.8598 37.5911 40.6538 38.3748 40.2419 39.0518C39.8299 39.7242 39.2333 40.2521 38.4521 40.6357C37.6708 41.0144 36.7239 41.2038 35.6112 41.2038ZM35.945 42.2834V44.4496H27.9904V42.2834H35.945Z" fill="#2B90FB"/>
<path d="M20.9597 82.5135L17.5234 80.7873L19.8143 78.4857C22.6888 75.6565 26.3212 73.5547 30.1233 72.1562L31.8415 75.6087C32.9379 78.1374 34.6718 80.4239 36.996 81.9381C39.3202 83.4522 41.6577 84.2406 44.4414 84.2397H92.5503C102.583 84.2373 112.36 87.6429 120.041 94.0215L120.614 94.5969V96.8986H111.45L115.459 102.077H120.614V105.53C120.611 106.461 120.134 107.173 119.468 107.831C118.802 108.489 118.119 108.979 117.177 108.982H109.732C109.999 107.707 110.043 106.219 109.732 104.954C109.421 103.689 108.843 102.513 108.014 101.502C107.184 100.491 106.338 99.7625 105.15 99.2002C103.962 98.6378 102.458 98.6299 101.141 98.6248C99.8241 98.6196 98.3243 98.6472 97.1321 99.2002C95.9398 99.7532 95.106 100.497 94.2684 101.502C93.4309 102.506 92.8716 103.692 92.5503 104.954C92.229 106.216 92.2934 107.705 92.5503 108.982H45.5869C45.7946 107.786 45.883 106.132 45.5869 104.954C45.2907 103.776 44.6188 103.038 43.8687 102.077C43.1186 101.116 42.6554 100.358 41.5778 99.7756C40.5003 99.1936 38.7921 98.7297 37.5687 98.6248C36.3454 98.5198 35.2953 98.8104 34.1324 99.2002C32.9695 99.5899 32.1752 100.108 31.2688 100.926C30.3623 101.745 29.475 102.694 28.9779 103.803C28.4808 104.913 28.4091 106.042 28.4052 107.256C28.4135 107.739 28.3153 107.931 28.4052 108.407V108.407L17.5234 102.077V93.4461H22.6779L26.687 87.6921H17.5234L20.9597 82.5135Z" fill="#9BC9FF"/>
<path d="M16.3781 87.1171L18.669 83.6647L16.9508 82.5139C16.7004 82.3894 16.5445 82.1626 16.3781 81.9385C16.2116 81.7143 15.8515 81.6381 15.8054 81.3631C15.7641 81.0861 15.7193 81.0542 15.8054 80.7877C15.8915 80.5211 16.1824 79.8379 16.3781 79.6369L18.669 77.3353C21.4664 74.5386 24.7435 72.5159 28.4053 71.0058C32.0671 69.4957 35.8966 68.6956 39.8598 68.7042H69.0687C72.0976 68.6945 75.4343 69.2748 78.2323 70.4304C81.0303 71.586 83.5443 73.4672 85.6777 75.6091L93.1232 83.0893C103.441 83.1603 113.276 86.8478 121.187 93.4465H121.759C121.963 93.6146 122.219 93.7839 122.332 94.0219C122.445 94.26 122.33 94.9093 122.332 95.1727V105.53C122.328 106.934 121.611 108.565 120.614 109.558C119.617 110.551 118.587 111.28 117.178 111.284H110.878C110.147 113.35 109.236 115.197 107.441 116.463C105.646 117.729 103.34 118.189 101.141 118.189C98.9421 118.189 96.6361 117.729 94.8413 116.463C93.0465 115.197 91.5626 113.35 90.8323 111.284H47.3052C46.5448 113.434 45.1953 115.191 43.2961 116.463C41.3969 117.734 38.7088 118.3 36.4234 118.189C34.1381 118.078 31.8893 117.337 30.1235 115.887C28.3576 114.438 27.2337 112.347 26.6871 110.133L16.3781 103.804C16.1253 103.642 15.9508 103.49 15.8054 103.228C15.6599 102.966 15.8088 102.377 15.8054 102.078V88.2679C15.8045 87.921 16.1809 87.403 16.3781 87.1171ZM53.6052 72.1566H39.8598C37.2896 72.1525 34.8778 72.577 32.4144 73.3074L33.5598 75.6091C34.52 77.8333 36.1117 79.4563 38.1416 80.7877C40.1716 82.1191 42.0112 83.0897 44.4416 83.0893H57.0415L53.6052 72.1566ZM82.8141 77.9107C81.0065 76.1001 78.8827 74.8594 76.5142 73.8828C74.1456 72.9063 71.6321 72.1482 69.0687 72.1566H57.0415L60.4779 83.0893H87.9686L82.8141 77.9107ZM118.896 98.6252H114.887L116.032 100.351H118.896V98.6252ZM101.141 114.736C102.544 114.736 103.984 114.362 105.15 113.586C106.317 112.809 106.904 111.425 107.441 110.133C107.978 108.842 108.288 107.476 108.014 106.105C107.74 104.735 107.288 103.641 106.296 102.653C105.304 101.665 103.663 101.199 102.287 100.927C100.911 100.654 99.5739 100.392 98.2777 100.927C96.9814 101.462 95.6208 102.642 94.8413 103.804C94.0618 104.966 93.6959 106.434 93.6959 107.832C93.6959 109.706 94.6564 111.109 95.9868 112.435C97.3172 113.76 99.2598 114.736 101.141 114.736ZM68.496 107.832H90.2595C90.2595 105.02 91.7003 102.339 93.6959 100.351C95.6915 98.3634 98.3191 96.8989 101.141 96.8989C103.963 96.8989 106.591 98.3634 108.587 100.351C110.582 102.339 111.45 105.02 111.45 107.832H117.178C117.648 107.832 117.99 107.588 118.323 107.256C118.656 106.925 118.896 105.999 118.896 105.53V103.804H115.459C115.167 103.802 114.571 103.942 114.314 103.804C114.057 103.665 113.902 103.471 113.741 103.228L110.305 98.0497C110.122 97.7879 109.748 97.2176 109.732 96.8989C109.716 96.5803 110.149 96.602 110.305 96.3235C110.453 96.0394 110.602 95.9134 110.878 95.7481C111.153 95.5829 111.129 95.1705 111.45 95.1727H117.75C110.543 89.4668 101.756 86.5567 92.5504 86.5417H61.6233L68.496 107.832ZM36.9962 114.736C38.3992 114.736 39.8386 114.362 41.0052 113.586C42.1719 112.809 43.3319 111.425 43.8689 110.133C44.4058 108.842 44.1426 107.476 43.8689 106.105C43.5951 104.735 43.1428 103.641 42.1507 102.653C41.1586 101.665 40.0905 101.199 38.7143 100.927C37.3382 100.654 35.4288 100.392 34.1326 100.927C32.8363 101.462 32.0484 102.642 31.2689 103.804C30.4894 104.966 30.1235 106.434 30.1235 107.832C30.1235 109.706 30.5113 111.109 31.8417 112.435C33.172 113.76 35.1147 114.736 36.9962 114.736ZM19.2417 101.502L26.6871 106.105C27.1219 103.481 28.5911 100.837 30.6962 99.2006C32.8013 97.5643 35.4805 96.6808 38.1416 96.8989C40.8027 97.1171 43.206 98.3943 45.0143 100.351C46.8226 102.308 47.8797 105.172 47.8779 107.832H65.0597L58.187 86.5417H44.4416C41.3164 86.5451 38.4611 85.3764 35.8507 83.6647C33.2403 81.953 31.3562 79.6207 30.1235 76.7599L28.978 74.4582C26.0295 75.7671 23.2398 77.9358 20.9599 80.2123L20.3872 80.7877L22.1053 81.3631C22.3275 81.4756 22.5194 81.747 22.6781 81.9385C22.8367 82.13 22.6092 82.2752 22.6781 82.5139C22.7408 82.7563 22.7209 82.8426 22.6781 83.0893C22.6353 83.336 22.8189 83.4573 22.6781 83.6647L20.9599 86.5417H26.6871C27.0086 86.5394 26.9845 86.3765 27.2599 86.5417C27.5353 86.7069 27.6843 86.833 27.8326 87.1171C27.9889 87.3956 28.421 87.9493 28.4053 88.2679C28.3896 88.5866 28.0155 88.5814 27.8326 88.8433L24.3962 94.5973C24.2356 94.8404 24.0803 95.034 23.8235 95.1727C23.5667 95.3114 22.9702 95.1712 22.6781 95.1727H19.2417V101.502ZM19.2417 91.7203H22.1053L23.2508 89.9941H19.2417V91.7203Z" fill="#1E81CE"/>
<path d="M67.3506 91.72C66.8789 91.72 65.966 91.4683 65.6324 91.1446C65.2989 90.8209 65.6324 90.4516 65.6324 89.9938C65.6324 89.536 65.2989 89.1667 65.6324 88.843C65.966 88.5193 66.8789 88.2676 67.3506 88.2676H70.787C71.2586 88.2676 71.5989 88.5193 71.9324 88.843C72.2659 89.1667 72.5051 89.536 72.5051 89.9938C72.5051 90.4516 72.2659 90.8209 71.9324 91.1446C71.5989 91.4683 71.2586 91.72 70.787 91.72H67.3506ZM40.4326 88.2676H43.8689C44.3406 88.2676 45.2536 88.5193 45.5871 88.843C45.9206 89.1667 45.5871 89.536 45.5871 89.9938C45.5871 90.4516 45.9206 90.8209 45.5871 91.1446C45.2536 91.4683 44.3406 91.72 43.8689 91.72H40.4326C39.9609 91.72 39.6206 91.4683 39.2871 91.1446C38.9536 90.8209 38.7144 90.4516 38.7144 89.9938C38.7144 89.536 38.9536 89.1667 39.2871 88.843C39.6206 88.5193 39.9609 88.2676 40.4326 88.2676Z" fill="#1E81CE"/>
</svg>
