<svg width="139" height="133" viewBox="0 0 139 133" fill="none" xmlns="http://www.w3.org/2000/svg">
<ellipse cx="52.125" cy="78.1379" rx="52.125" ry="54.8625" fill="#E6F1FF"/>
<path d="M18.6344 88.9552H15.964V87.2688C15.964 86.255 16.3587 85.1751 17.0322 84.4582C17.7056 83.7414 18.7501 83.334 19.7025 83.334H98.7449L115.301 85.0203C116.648 85.1397 117.59 85.6482 118.505 86.7067C119.42 87.7652 120.108 89.2031 120.108 90.6415V91.2036H117.437C116.723 91.2036 115.806 91.2281 115.301 91.7658C114.796 92.3034 114.767 93.2539 114.767 94.0142C114.767 94.7746 114.796 95.163 115.301 95.7006C115.806 96.2382 116.723 96.8248 117.437 96.8248H120.108V102.446H107.29C107.503 101.834 107.284 101.412 107.29 100.76C107.29 99.239 107.232 97.338 106.222 96.2627C105.212 95.1874 103.378 94.5763 101.949 94.5763C100.521 94.5763 99.221 95.1874 98.2108 96.2627C97.2006 97.338 96.6086 99.239 96.6086 100.76C96.6144 101.412 96.9299 101.834 97.1427 102.446H38.929C39.1418 101.834 39.4573 101.412 39.4631 100.76C39.4631 99.239 38.8711 97.338 37.8609 96.2627C36.8507 95.1874 35.5511 94.5763 34.1224 94.5763C32.6938 94.5763 30.8601 95.1874 29.8499 96.2627C28.8396 97.338 28.7817 99.239 28.7817 100.76C28.7875 101.412 28.5689 101.834 28.7817 102.446H15.964V94.5763H18.6344C19.3487 94.5763 20.2656 94.5519 20.7707 94.0142C21.2758 93.4766 21.3047 92.5261 21.3047 91.7658C21.3047 91.0054 21.2758 90.617 20.7707 90.0794C20.2656 89.5418 19.3487 88.9552 18.6344 88.9552Z" fill="#9BC9FF"/>
<path d="M19.1681 81.6481H29.3154L37.3264 71.5299C38.1709 70.4874 39.3515 69.8555 40.5309 69.2815C41.7103 68.7074 42.9709 68.1578 44.2693 68.1572H78.4498C81.2485 68.1585 83.7131 69.158 85.9268 70.9678L99.2785 81.6481L115.301 82.7723C117.097 82.9387 118.352 84.18 119.573 85.5829C120.794 86.9858 121.702 88.7358 121.709 90.642V102.446C121.709 102.95 121.513 103.214 121.175 103.571C120.838 103.927 120.584 104.133 120.107 104.133H108.358C107.736 105.287 106.774 106.276 105.687 106.943C104.601 107.611 103.206 108.068 101.949 108.068C100.692 108.068 99.2968 107.611 98.2104 106.943C97.124 106.276 96.1616 105.287 95.5401 104.133H39.9968C39.3752 105.287 38.4129 106.276 37.3264 106.943C36.24 107.611 34.8447 108.068 33.5879 108.068C32.3312 108.068 30.9359 107.611 29.8495 106.943C28.763 106.276 27.8007 105.287 27.1791 104.133H15.4296C14.9527 104.133 14.6986 103.927 14.3614 103.571C14.0242 103.214 13.8274 102.95 13.8274 102.446V87.2692C13.8316 85.7585 14.4189 84.4027 15.4296 83.3344C16.4402 82.2662 17.7388 81.6526 19.1681 81.6481ZM117.971 92.8904H117.437C117.198 92.8904 116.537 92.7122 116.369 92.8904C116.2 93.0686 116.369 93.7626 116.369 94.0147C116.369 94.2667 116.2 94.3986 116.369 94.5768C116.537 94.755 117.198 94.5768 117.437 94.5768H117.971V92.8904ZM101.949 104.133C102.66 104.133 103.494 103.988 104.085 103.571C104.677 103.153 104.881 102.579 105.153 101.884C105.425 101.19 105.826 100.373 105.687 99.6358C105.549 98.8985 105.122 98.4811 104.619 97.9495C104.116 97.4179 103.181 96.9719 102.483 96.8253C101.785 96.6786 101.004 96.5376 100.347 96.8253C99.6896 97.1129 99.1396 97.8865 98.7445 98.5116C98.3493 99.1367 98.2104 99.4462 98.2104 100.198C98.2132 101.205 98.6048 102.296 99.2785 103.009C99.9523 103.721 100.996 104.13 101.949 104.133ZM78.4498 91.2041H91.2675C91.7444 91.2041 91.9984 91.4098 92.3356 91.7662C92.6728 92.1226 92.8697 92.3864 92.8697 92.8904C92.8697 93.3945 92.6728 93.6583 92.3356 94.0147C91.9984 94.3711 91.7444 94.5768 91.2675 94.5768H78.4498V100.198H94.4719C94.4719 98.1818 95.2594 96.5645 96.6082 95.1389C97.957 93.7133 100.041 92.8904 101.949 92.8904C103.856 92.8904 105.407 93.7133 106.756 95.1389C108.104 96.5645 108.892 98.1818 108.892 100.198H117.971V98.5116H117.437C116.245 98.5116 115.075 98.2784 114.232 97.3874C113.39 96.4964 112.63 95.2747 112.63 94.0147C112.63 92.7546 113.39 91.533 114.232 90.642C115.075 89.7509 116.245 88.9556 117.437 88.9556H117.971C117.718 88.3113 117.435 87.6814 116.903 87.2692C116.37 86.8571 115.424 86.7677 114.767 86.7071L98.2104 85.0208H78.4498V91.2041ZM78.4498 81.6481H92.8697L83.7905 73.7784C82.234 72.5202 80.409 72.1301 78.4498 72.0921V81.6481ZM46.4056 72.0921H44.2693C43.4899 72.0898 42.307 72.3095 41.599 72.6542C40.891 72.9988 40.5019 73.1509 39.9968 73.7784L34.122 81.6481H46.4056V72.0921ZM49.61 100.198H74.7113V94.5768H49.61V100.198ZM49.61 91.2041H74.7113V85.0208H49.61V91.2041ZM49.61 81.6481H74.7113V72.0921H49.61V81.6481ZM33.5879 104.133C34.2992 104.133 35.1329 103.988 35.7242 103.571C36.3156 103.153 36.5202 102.579 36.7924 101.884C37.0645 101.19 37.4652 100.373 37.3264 99.6358C37.1877 98.8985 36.7612 98.4811 36.2583 97.9495C35.7554 97.4179 34.8196 96.9719 34.122 96.8253C33.4245 96.6786 32.6428 96.5376 31.9857 96.8253C31.3286 97.1129 30.7787 97.8865 30.3835 98.5116C29.9884 99.1367 29.8495 99.4462 29.8495 100.198C29.8523 101.205 30.2438 102.296 30.9176 103.009C31.5914 103.721 32.6351 104.13 33.5879 104.133ZM17.5659 92.8904H18.0999C18.3384 92.8904 18.9995 92.5065 19.1681 92.3283C19.3367 92.1501 19.1681 92.0182 19.1681 91.7662C19.1681 91.5142 19.3367 91.3823 19.1681 91.2041C18.9995 91.0259 18.3384 91.2041 18.0999 91.2041H17.5659V92.8904ZM18.0999 87.2692C19.2921 87.2692 20.4614 87.5025 21.3043 88.3935C22.1473 89.2845 22.9066 90.5061 22.9066 91.7662C22.9066 93.0263 22.1473 94.2479 21.3043 95.1389C20.4614 96.0299 19.2921 96.8253 18.0999 96.8253H17.5659V100.198H26.645C26.645 98.1818 27.4325 96.5645 28.7813 95.1389C30.1301 93.7133 31.6805 92.8904 33.5879 92.8904C35.4954 92.8904 37.5799 93.7133 38.9286 95.1389C40.2774 96.5645 40.5309 98.1818 40.5309 100.198H46.4056V94.5768H42.6671C42.1903 94.5768 41.4021 94.3711 41.0649 94.0147C40.7277 93.6583 40.5309 93.3945 40.5309 92.8904C40.5309 92.3864 40.7277 92.1226 41.0649 91.7662C41.4021 91.4098 42.1903 91.2041 42.6671 91.2041H46.4056V85.0208H19.1681C18.6912 85.0208 18.4371 85.2265 18.0999 85.5829C17.7627 85.9393 17.5659 86.7652 17.5659 87.2692H18.0999Z" fill="#1E81CE"/>
<path d="M46.5179 34.2051C46.5179 42.6317 40.0462 49.3301 32.2225 49.3301C24.3987 49.3301 17.927 42.6317 17.927 34.2051C17.927 25.7785 24.3987 19.0801 32.2225 19.0801C40.0462 19.0801 46.5179 25.7785 46.5179 34.2051Z" fill="#E6F1FF" stroke="#2B90FB" stroke-width="3"/>
<path d="M34.0463 35.7595H26.4256V33.5933H33.9895C34.6003 33.5933 35.1022 33.4962 35.4952 33.3021C35.8929 33.108 36.1865 32.8381 36.3759 32.4925C36.57 32.1468 36.6647 31.742 36.66 31.278C36.6647 30.8234 36.57 30.4162 36.3759 30.0564C36.1865 29.6918 35.8977 29.4053 35.5094 29.197C35.1259 28.9839 34.6382 28.8774 34.0463 28.8774H31.1912V41.2354H28.5634V26.6899H34.0463C35.1732 26.6899 36.1273 26.8935 36.9086 27.3007C37.6898 27.7032 38.2817 28.25 38.6841 28.9413C39.0913 29.6279 39.2949 30.3997 39.2949 31.2567C39.2949 32.1468 39.089 32.9304 38.677 33.6075C38.2651 34.2799 37.6685 34.8078 36.8873 35.1913C36.106 35.5701 35.159 35.7595 34.0463 35.7595ZM34.3802 36.839V39.0052H26.4256V36.839H34.3802Z" fill="#2B90FB"/>
</svg>
