<svg width="52" height="52" viewBox="0 0 52 52" fill="none" xmlns="http://www.w3.org/2000/svg">
<path d="M16.6427 23.4873C15.362 23.1222 14.0813 22.937 12.8355 22.937C10.9117 22.937 9.30639 23.3723 8.06166 23.9054C9.26166 19.5554 12.1444 12.0496 17.8869 11.2044C18.1473 11.166 18.3909 11.0538 18.5884 10.8814C18.7858 10.709 18.9286 10.4837 18.9997 10.2327L20.2547 5.78773C20.3072 5.60203 20.3188 5.40736 20.2889 5.21683C20.259 5.02629 20.1883 4.84431 20.0814 4.68312C19.9745 4.52193 19.834 4.38527 19.6694 4.28235C19.5047 4.17942 19.3197 4.11261 19.1268 4.08642C18.7012 4.029 18.2722 4.00013 17.8428 4C10.9498 4 4.12348 11.1239 1.24294 21.3242C-0.447971 27.3085 -0.943789 36.3055 3.2213 41.9684C5.55203 45.1372 8.95239 46.8293 13.328 46.9984L13.3815 46.9995C18.7804 46.9995 23.5678 43.3992 25.0242 38.245C25.4564 36.7308 25.5809 35.1467 25.3907 33.5845C25.2004 32.0222 24.6991 30.5129 23.9158 29.1438C22.3477 26.3866 19.7649 24.3769 16.6427 23.4873ZM50.4386 29.1443C48.8704 26.3866 46.2877 24.3769 43.1655 23.4873C41.8847 23.1222 40.604 22.937 39.3587 22.937C37.7171 22.9321 36.0919 23.2617 34.5844 23.9054C35.7844 19.5554 38.6671 12.0496 44.4102 11.2044C44.6705 11.1659 44.9141 11.0537 45.1115 10.8813C45.3089 10.7089 45.4518 10.4837 45.5229 10.2327L46.778 5.78773C46.8305 5.60203 46.8421 5.40736 46.8122 5.21683C46.7823 5.02629 46.7115 4.84431 46.6047 4.68312C46.4978 4.52193 46.3573 4.38527 46.1926 4.28235C46.028 4.17942 45.8429 4.11261 45.65 4.08642C45.2245 4.02897 44.7955 4.0001 44.366 4C37.4731 4 30.6467 11.1239 27.7657 21.3242C26.0753 27.3085 25.5795 36.3055 29.7451 41.9695C32.0753 45.1377 35.4762 46.8304 39.8513 46.9989L39.9053 47C45.3037 47 50.0916 43.3997 51.548 38.2455C51.9796 36.7312 52.1038 35.1471 51.9133 33.585C51.7229 32.0228 51.2217 30.5135 50.4386 29.1443Z" fill="#2B90FB"/>
<path d="M16.6427 23.4873C15.362 23.1222 14.0813 22.937 12.8355 22.937C10.9117 22.937 9.30639 23.3723 8.06166 23.9054C9.26166 19.5554 12.1444 12.0496 17.8869 11.2044C18.1473 11.166 18.3909 11.0538 18.5884 10.8814C18.7858 10.709 18.9286 10.4837 18.9997 10.2327L20.2547 5.78773C20.3072 5.60203 20.3188 5.40736 20.2889 5.21683C20.259 5.02629 20.1883 4.84431 20.0814 4.68312C19.9745 4.52193 19.834 4.38527 19.6694 4.28235C19.5047 4.17942 19.3197 4.11261 19.1268 4.08642C18.7012 4.029 18.2722 4.00013 17.8428 4C10.9498 4 4.12348 11.1239 1.24294 21.3242C-0.447971 27.3085 -0.943789 36.3055 3.2213 41.9684C5.55203 45.1372 8.95239 46.8293 13.328 46.9984L13.3815 46.9995C18.7804 46.9995 23.5678 43.3992 25.0242 38.245C25.4564 36.7308 25.5809 35.1467 25.3907 33.5845C25.2004 32.0222 24.6991 30.5129 23.9158 29.1438C22.3477 26.3866 19.7649 24.3769 16.6427 23.4873ZM50.4386 29.1443C48.8704 26.3866 46.2877 24.3769 43.1655 23.4873C41.8847 23.1222 40.604 22.937 39.3587 22.937C37.7171 22.9321 36.0919 23.2617 34.5844 23.9054C35.7844 19.5554 38.6671 12.0496 44.4102 11.2044C44.6705 11.1659 44.9141 11.0537 45.1115 10.8813C45.3089 10.7089 45.4518 10.4837 45.5229 10.2327L46.778 5.78773C46.8305 5.60203 46.8421 5.40736 46.8122 5.21683C46.7823 5.02629 46.7115 4.84431 46.6047 4.68312C46.4978 4.52193 46.3573 4.38527 46.1926 4.28235C46.028 4.17942 45.8429 4.11261 45.65 4.08642C45.2245 4.02897 44.7955 4.0001 44.366 4C37.4731 4 30.6467 11.1239 27.7657 21.3242C26.0753 27.3085 25.5795 36.3055 29.7451 41.9695C32.0753 45.1377 35.4762 46.8304 39.8513 46.9989L39.9053 47C45.3037 47 50.0916 43.3997 51.548 38.2455C51.9796 36.7312 52.1038 35.1471 51.9133 33.585C51.7229 32.0228 51.2217 30.5135 50.4386 29.1443Z" fill="url(#paint0_linear_1_431)"/>
<defs>
<linearGradient id="paint0_linear_1_431" x1="-1.59649" y1="27.4846" x2="53.3684" y2="27.4846" gradientUnits="userSpaceOnUse">
<stop stop-color="#2B90FB"/>
<stop offset="1" stop-color="#006AD9"/>
</linearGradient>
</defs>
</svg>
