<svg width="139" height="133" viewBox="0 0 139 133" fill="none" xmlns="http://www.w3.org/2000/svg">
<ellipse cx="54.6071" cy="70.1574" rx="54.6071" ry="54.8625" fill="#E6F1FF"/>
<path d="M36.2864 56.5986H41.4355L39.7191 73.8273H31.1374L36.2864 56.5986ZM17.4066 83.5903V78.4217H22.5557L25.9884 73.8273H91.7816L108.373 76.1245C109.85 76.3488 111.346 76.7666 112.378 77.8474C113.409 78.9282 113.939 80.3813 114.094 81.8674C114.128 82.1091 114.094 82.7719 114.094 83.016V83.5903H107.229L108.945 88.7589H114.094V93.9275H101.508C102.075 92.6362 102.196 91.313 102.08 89.9075C101.964 88.5019 101.706 87.0683 100.935 85.8874C100.165 84.7066 98.7427 83.6874 97.5028 83.016C96.2628 82.3446 94.9079 81.8674 93.498 81.8674C92.088 81.8674 90.7331 82.3446 89.4932 83.016C88.2532 83.6874 87.4035 84.7066 86.6326 85.8874C85.8616 87.0683 85.6043 88.5019 85.4883 89.9075C85.3724 91.313 85.4935 92.6362 86.0605 93.9275H42.0076C42.5745 92.6362 42.6957 91.313 42.5797 89.9075C42.4637 88.5019 42.2064 87.0683 41.4355 85.8874C40.6645 84.7066 39.8149 83.6874 38.5749 83.016C37.3349 82.3446 35.9801 81.8674 34.5701 81.8674C33.1601 81.8674 31.8053 82.3446 30.5653 83.016C29.3253 83.6874 27.9035 84.7066 27.1326 85.8874C26.3616 87.0683 26.1043 88.5019 25.9884 89.9075C25.8724 91.313 25.9935 92.6362 26.5605 93.9275H22.5557L15.6903 90.4818V85.3132L17.4066 83.5903Z" fill="#9BC9FF"/>
<path d="M14.5465 84.1645L15.6907 83.016V73.8273C15.6907 73.7764 16.2628 72.1044 16.2628 72.1044C17.1356 67.7356 19.0569 63.3991 21.984 60.0443L19.6955 57.7472C19.4602 57.5083 19.1868 57.5024 19.1234 57.1729C19.06 56.8434 18.9935 56.3336 19.1234 56.0243C19.2481 55.7124 19.4173 55.0635 19.6955 54.8757C19.9737 54.688 20.5043 54.8745 20.8397 54.8757H62.6042C69.778 54.8709 76.7491 57.5065 82.0561 62.3415L92.9263 72.1044L108.373 74.4016C110.212 74.6775 112.234 75.3561 113.522 76.6988C114.811 78.0415 115.609 80.0162 115.811 81.8674C115.862 82.1731 115.811 93.9275 115.811 93.9275C115.811 94.3779 115.557 94.7575 115.239 95.0761C114.921 95.3946 114.544 95.6503 114.095 95.6503H102.652C101.762 97.1994 100.192 98.7757 98.6474 99.6704C97.1024 100.565 95.283 100.819 93.4984 100.819C91.7138 100.819 90.4664 100.565 88.9215 99.6704C87.3765 98.7757 85.8072 97.1994 84.9167 95.6503H43.1522C42.2617 97.1994 40.6924 98.7757 39.1474 99.6704C37.6025 100.565 36.3551 100.819 34.5705 100.819C32.7859 100.819 30.9665 100.565 29.4215 99.6704C27.8765 98.7757 26.3072 97.1994 25.4167 95.6503H22.5561C22.2906 95.6488 21.6481 95.7716 21.4119 95.6503L15.1186 92.2046C14.8361 92.0671 14.1395 91.898 13.9744 91.6303C13.8092 91.3627 13.9708 90.7963 13.9744 90.4817V85.3131C13.9777 84.8628 14.2341 84.4884 14.5465 84.1645ZM24.8446 58.3215L25.4167 58.8958C25.7344 59.2165 25.9888 59.5926 25.9888 60.0443C25.9888 60.4961 25.7344 60.8722 25.4167 61.1929C22.4798 64.1228 20.6133 68.0556 19.6955 72.1044H29.4215L33.9984 58.3215H24.8446ZM19.1234 75.5502V77.2731H21.4119L22.5561 75.5502H19.1234ZM37.4311 58.3215L33.4263 72.1044H38.0032L39.1474 58.3215H37.4311ZM58.0272 58.3215H42.5801L41.4359 72.1044H58.0272V58.3215ZM79.7676 64.6387C75.0872 60.3733 68.9318 58.318 62.6042 58.3215H61.4599V72.1044H87.7772L79.7676 64.6387ZM112.378 85.3131H109.518L110.09 87.036H112.378V85.3131ZM93.4984 97.3732C94.8399 97.3732 96.3878 96.9712 97.5032 96.2246C98.6186 95.4781 99.2783 94.5946 99.7917 93.3532C100.305 92.1118 100.625 90.651 100.364 89.3332C100.102 88.0153 99.596 86.8376 98.6474 85.8874C97.6989 84.9373 96.5304 84.4267 95.2147 84.1645C93.899 83.9024 92.4493 83.6503 91.2099 84.1645C89.9706 84.6788 89.0946 85.9187 88.3494 87.036C87.6041 88.1532 87.2051 89.138 87.2051 90.4817C87.2051 92.2836 87.6495 94.3762 88.9215 95.6503C90.1935 96.9245 91.6995 97.3732 93.4984 97.3732ZM34.5705 97.3732C35.912 97.3732 36.8878 96.9712 38.0032 96.2246C39.1186 95.4781 40.3504 94.5946 40.8638 93.3532C41.3771 92.1118 41.1255 90.651 40.8638 89.3332C40.6021 88.0153 40.096 86.8376 39.1474 85.8874C38.1989 84.9373 37.0304 84.4267 35.7147 84.1645C34.399 83.9024 32.9493 83.6503 31.7099 84.1645C30.4706 84.6788 29.5946 85.9187 28.8494 87.036C28.1041 88.1532 27.7051 89.138 27.7051 90.4817C27.7051 92.2836 28.1495 94.3762 29.4215 95.6503C30.6935 96.9245 32.7716 97.3732 34.5705 97.3732ZM17.4071 89.3332L23.1282 92.2046H24.2724C24.1788 91.6431 24.2804 91.0509 24.2724 90.4817C24.2724 87.779 25.225 85.5014 27.133 83.5903C29.041 81.6791 31.8722 80.1445 34.5705 80.1445C37.2688 80.1445 39.5279 81.6791 41.4359 83.5903C43.3439 85.5014 44.2965 87.779 44.2965 90.4817C44.2885 91.0509 44.3901 91.6431 44.2965 92.2046H83.7724C83.6788 91.6431 83.7804 91.0509 83.7724 90.4817C83.7724 87.779 84.725 85.5014 86.633 83.5903C88.541 81.6791 90.8001 80.1445 93.4984 80.1445C96.1967 80.1445 99.0279 81.6791 100.936 83.5903C102.844 85.5014 103.796 87.779 103.796 90.4817C103.788 91.0509 103.89 91.6431 103.796 92.2046H112.378V90.4817H108.946C108.591 90.4791 108.09 90.6885 107.801 90.4817C107.513 90.275 107.346 89.6686 107.229 89.3332L105.513 84.1645C105.429 83.9091 105.472 83.856 105.513 83.5903C105.554 83.3245 105.927 83.2337 106.085 83.016C106.239 82.7947 106.418 82.5659 106.657 82.4417C106.896 82.3174 106.96 81.8662 107.229 81.8674H112.378C112.227 80.7898 111.425 79.77 110.662 78.9959C109.898 78.2219 109.447 78.012 108.373 77.8473L91.782 75.5502H26.5609L23.7003 79.5702C23.5467 79.8039 23.3737 80.0112 23.1282 80.1445C22.8827 80.2778 22.8354 80.1431 22.5561 80.1445H19.1234V83.5903C19.12 84.0405 18.8636 84.415 18.5513 84.7388L17.4071 86.4617V89.3332Z" fill="#1E81CE"/>
<path d="M63.1769 77.2725H66.6096C67.0553 77.2725 67.4386 77.5237 67.7538 77.8468C68.069 78.1699 68.3259 78.5384 68.3259 78.9953C68.3259 79.4523 68.069 79.8208 67.7538 80.1439C67.4386 80.467 67.0553 80.7182 66.6096 80.7182H63.1769C62.7312 80.7182 62.3478 80.467 62.0327 80.1439C61.7175 79.8208 61.4605 79.4523 61.4605 78.9953C61.4605 78.5384 61.7175 78.1699 62.0327 77.8468C62.3478 77.5237 62.7312 77.2725 63.1769 77.2725ZM43.1528 77.2725H46.5855C47.0313 77.2725 47.4146 77.5237 47.7298 77.8468C48.0449 78.1699 48.3019 78.5384 48.3019 78.9953C48.3019 79.4523 48.0449 79.8208 47.7298 80.1439C47.4146 80.467 47.0313 80.7182 46.5855 80.7182H43.1528C42.7071 80.7182 42.3238 80.467 42.0086 80.1439C41.6934 79.8208 41.4365 79.4523 41.4365 78.9953C41.4365 78.5384 41.6934 78.1699 42.0086 77.8468C42.3238 77.5237 42.7071 77.2725 43.1528 77.2725Z" fill="#1E81CE"/>
</svg>
