<svg width="101" height="107" viewBox="0 0 101 107" fill="none" xmlns="http://www.w3.org/2000/svg">
<path fill-rule="evenodd" clip-rule="evenodd" d="M7.69775 91.24L11.6496 77.7526L14.2842 68.97L24.446 34.3417C25.5124 30.7033 30.7188 31.3306 33.2279 33.7772L73.2481 73.8632C75.6945 76.3097 76.1963 81.4538 72.6836 82.5202L64.0899 85.0295H63.9644L62.208 85.5941L38.3088 92.6202C38.2301 92.6712 38.146 92.7133 38.0579 92.7456L31.4088 94.6276L15.8523 99.2071L8.45048 106.609C8.33328 106.733 8.19221 106.831 8.03585 106.898C7.87948 106.965 7.7111 107 7.54093 107C7.37077 107 7.20238 106.965 7.04602 106.898C6.88966 106.831 6.74858 106.733 6.63138 106.609L0.358623 100.336C0.128755 100.102 0 99.7864 0 99.458C0 99.1296 0.128755 98.8143 0.358623 98.5797L7.69775 91.24ZM78.0781 21.1052C77.8376 21.1012 77.6032 21.0281 77.403 20.8947C77.2028 20.7612 77.0452 20.573 76.949 20.3524L75.0672 16.2748L70.9899 14.3928C70.7778 14.2901 70.5989 14.1297 70.4738 13.93C70.3486 13.7303 70.2822 13.4993 70.2822 13.2637C70.2822 13.028 70.3486 12.797 70.4738 12.5973C70.5989 12.3976 70.7778 12.2372 70.9899 12.1345L75.0672 10.2525L76.949 6.17489C77.0436 5.94478 77.2043 5.74796 77.411 5.60944C77.6176 5.47093 77.8607 5.39697 78.1095 5.39697C78.3582 5.39697 78.6014 5.47093 78.808 5.60944C79.0147 5.74796 79.1754 5.94478 79.27 6.17489L81.1518 10.2525L85.2291 12.1345C85.4412 12.2372 85.6201 12.3976 85.7452 12.5973C85.8704 12.797 85.9368 13.028 85.9368 13.2637C85.9368 13.4993 85.8704 13.7303 85.7452 13.93C85.6201 14.1297 85.4412 14.2901 85.2291 14.3928L81.1518 16.2748L79.27 20.3524C79.1696 20.5829 79.0023 20.7778 78.7898 20.912C78.5773 21.0463 78.3293 21.1136 78.0781 21.1052ZM74.5027 13.2637C77.4509 14.6438 76.7609 13.891 78.0781 16.8394C79.4581 13.9537 78.7681 14.6438 81.6536 13.2637C78.7681 11.9463 79.4581 12.6363 78.0781 9.68791C76.7609 12.6363 77.4509 11.9463 74.5027 13.2637ZM89.5573 35.7846C88.93 35.7846 85.0409 33.338 84.1627 32.8362C82.72 32.0206 83.9745 29.825 85.4173 30.7033L90.2473 33.4635C91.3137 34.0908 90.8746 35.7846 89.62 35.7846H89.5573ZM96.7082 52.2205H91.1882C89.4946 52.2205 89.4946 49.7112 91.1882 49.7112H96.7082C98.3392 49.7112 98.3392 52.2205 96.7082 52.2205ZM41.8843 28.3822C41.257 28.4449 37.3679 26.8139 37.117 26.8139L32.7888 28.3194C32.5708 28.3866 32.3387 28.393 32.1173 28.338C31.896 28.2831 31.6938 28.1688 31.5325 28.0075C31.3712 27.8462 31.257 27.644 31.202 27.4227C31.1471 27.2013 31.1535 26.9691 31.2206 26.7511L32.7261 22.4226L31.2206 18.1568C31.1444 17.9415 31.1284 17.7094 31.1744 17.4857C31.2203 17.2619 31.3265 17.055 31.4814 16.8871C31.6363 16.7193 31.8341 16.5969 32.0535 16.5333C32.2728 16.4696 32.5054 16.467 32.7261 16.5257L37.117 18.0941L41.3825 16.5257C41.6005 16.4586 41.8326 16.4522 42.054 16.5071C42.2753 16.5621 42.4775 16.6764 42.6388 16.8377C42.8 16.9989 42.9143 17.2011 42.9693 17.4225C43.0242 17.6439 43.0178 17.8761 42.9507 18.0941L41.5079 22.5481C41.5079 23.4263 44.8325 28.5076 41.947 28.5076L41.8843 28.3822ZM37.117 24.2418L39.7516 25.0573C38.6225 21.9207 38.6225 22.9244 39.7516 19.7878C36.6152 20.9797 37.6188 20.9797 34.4824 19.7878C35.6743 22.9244 35.6743 21.9207 34.4824 25.0573L37.117 24.2418ZM56.8135 11.8835C56.1862 11.9463 52.2971 10.3152 52.1716 10.3152L47.7807 11.8835C47.5592 11.9664 47.3187 11.985 47.0871 11.9371C46.8555 11.8892 46.6421 11.7768 46.4716 11.6128C46.3011 11.4489 46.1804 11.2401 46.1235 11.0105C46.0665 10.7809 46.0757 10.5399 46.1498 10.3152L47.7807 5.92396L46.1498 1.72089C46.0585 1.49289 46.0362 1.24311 46.0855 1.00253C46.1349 0.761946 46.2537 0.541138 46.4274 0.367478C46.601 0.193819 46.8218 0.0749447 47.0624 0.0255932C47.303 -0.0237583 47.5527 -0.00141672 47.7807 0.0898481L52.1716 1.65816L56.3744 0.0898481C56.5959 0.00696801 56.8364 -0.0115922 57.068 0.0363084C57.2996 0.0842091 57.513 0.196619 57.6835 0.360571C57.854 0.524523 57.9747 0.733338 58.0316 0.962928C58.0885 1.19252 58.0794 1.43353 58.0053 1.65816L56.4371 5.9867C56.4371 6.86495 59.6989 11.8835 56.8135 11.8835ZM49.4743 3.35193C50.6034 6.48855 50.6034 5.48483 49.4743 8.62146C52.6107 7.42954 51.6071 7.42954 54.7435 8.62146C53.5516 5.48483 53.5516 6.48855 54.6807 3.35193C51.5444 4.48112 52.6107 4.48112 49.4743 3.35193ZM87.6127 73.4868C86.9855 73.4868 83.0963 71.8557 82.8454 71.8557L78.5172 73.3613C78.2926 73.4354 78.0516 73.4446 77.8221 73.3876C77.5925 73.3307 77.3837 73.21 77.2197 73.0395C77.0558 72.869 76.9434 72.6556 76.8955 72.4239C76.8476 72.1923 76.8662 71.9518 76.949 71.7303L78.5172 67.4017L76.949 63.1359C76.8819 62.9179 76.8755 62.6858 76.9304 62.4644C76.9854 62.243 77.0997 62.0408 77.2609 61.8795C77.4222 61.7183 77.6244 61.604 77.8457 61.549C78.0671 61.4941 78.2992 61.5005 78.5172 61.5676L82.8454 63.1359L87.1736 61.5676C87.3982 61.4935 87.6392 61.4844 87.8688 61.5413C88.0984 61.5983 88.3072 61.7189 88.4711 61.8895C88.6351 62.06 88.7475 62.2733 88.7954 62.505C88.8433 62.7366 88.8247 62.9771 88.7418 63.1987L87.1736 67.4645C87.1736 68.4682 90.4982 73.4868 87.6127 73.4868ZM82.8454 69.221L85.48 70.0992C84.2882 66.9626 84.2882 68.029 85.48 64.8924C82.3436 66.0216 83.3473 66.0216 80.2109 64.8924C81.4027 68.029 81.4027 66.9626 80.2109 70.0992L82.8454 69.221ZM62.459 56.9254C62.2054 56.9225 61.9586 56.8428 61.7512 56.6969C61.5438 56.5509 61.3855 56.3455 61.2972 56.1077C61.2089 55.8699 61.1947 55.611 61.2565 55.365C61.3183 55.119 61.4533 54.8975 61.6435 54.7298C64.8426 51.8441 81.7791 37.4784 99.8446 38.733C101.476 38.8585 101.35 41.3678 99.6564 41.2423C82.72 40.1131 66.4108 53.7888 63.2744 56.6118C63.049 56.8106 62.7596 56.922 62.459 56.9254ZM64.9681 61.3794C63.6508 61.3794 63.2117 59.6229 64.3408 58.9956C65.8462 58.3055 85.4173 51.9068 92.0664 57.8664C93.3209 58.9329 91.69 60.8148 90.4355 59.7484C84.6645 54.6043 65.0935 61.3794 64.9681 61.3794ZM57.1898 48.9584C56.9458 48.9684 56.7041 48.9068 56.4944 48.7814C56.2848 48.6559 56.1164 48.472 56.0098 48.2522C55.9032 48.0323 55.8632 47.7862 55.8945 47.5439C55.9258 47.3016 56.0272 47.0737 56.1862 46.8882C57.0644 45.8845 77.3254 21.7953 89.9337 20.9797C91.5646 20.8543 91.7528 23.3636 90.0591 23.489C78.58 24.2418 58.3189 48.2683 58.1308 48.5193C58.0087 48.644 57.862 48.7419 57.7 48.8067C57.538 48.8715 57.3642 48.9018 57.1898 48.8957V48.9584ZM51.3562 45.759C51.1174 45.7567 50.8843 45.6862 50.6842 45.556C50.4841 45.4257 50.3253 45.241 50.2265 45.0236C50.1277 44.8063 50.093 44.5652 50.1264 44.3287C50.1598 44.0923 50.26 43.8703 50.4153 43.6889C53.1753 40.5523 66.9126 24.3046 65.7835 7.30408C65.6581 5.67303 68.1672 5.48484 68.2926 7.11588C69.4844 25.1201 55.1198 42.1206 52.2971 45.3827C52.175 45.5074 52.0283 45.6053 51.8663 45.6701C51.7043 45.7349 51.5306 45.7652 51.3562 45.759ZM46.8398 43.2498C46.6411 43.2425 46.447 43.1881 46.2735 43.0911C46.1 42.9941 45.952 42.8573 45.8417 42.6919C45.7315 42.5265 45.6621 42.3372 45.6393 42.1397C45.6165 41.9422 45.641 41.7422 45.7107 41.556C46.6516 39.6113 51.858 21.7325 47.2161 16.5257C46.1498 15.2711 48.0316 13.64 49.098 14.8947C55.0571 21.6071 48.7216 41.1796 47.9689 42.6224C47.8552 42.8196 47.6902 42.9821 47.4913 43.0926C47.2924 43.2031 47.0672 43.2574 46.8398 43.2498ZM10.2069 91.5537L15.476 96.7605L26.516 93.4984L13.4687 80.4501L10.2069 91.491V91.5537ZM2.99318 99.458L7.5723 103.975L13.3432 98.2033L8.82685 93.6239L2.99318 99.458ZM16.856 68.97L38.0579 90.1109L52.4853 85.8451L21.1215 54.4789L16.856 68.9073V68.97ZM14.3469 77.7526L29.2761 92.6829L35.2979 90.9264L16.0405 71.6675L14.2842 77.6898L14.3469 77.7526ZM24.446 42.9361L63.9017 82.3948L71.9308 80.0109C73.1854 79.6345 72.5581 76.7489 71.3663 75.5569L31.4715 35.5964C30.1542 34.3417 27.2688 33.7144 26.8924 35.0318L24.5088 42.9988L24.446 42.9361ZM21.8742 51.7186L55.1198 84.9668L61.1417 83.2103L23.6933 45.759L22.4387 50.0248L21.9369 51.7814L21.8742 51.7186Z" fill="#2B90FB"/>
<path fill-rule="evenodd" clip-rule="evenodd" d="M25.0625 42.6706L64.3146 82L72.3151 79.624C73.5651 79.2488 72.9401 76.3726 71.7525 75.1846L31.9379 35.2925C30.6253 34.0419 27.7501 33.4166 27.3751 34.7297L25.0625 42.6706Z" fill="#CAE5FD"/>
<path fill-rule="evenodd" clip-rule="evenodd" d="M61 83.2556L23.7444 46L22.4984 50.2364L22 51.9808L55.0192 85L61 83.2556Z" fill="white"/>
<path fill-rule="evenodd" clip-rule="evenodd" d="M53 86.746L21.3175 55L17 69.6032L38.4603 91L53 86.746Z" fill="#CAE5FD"/>
<path fill-rule="evenodd" clip-rule="evenodd" d="M35 91.1875L15.7552 72L14 78L28.9821 93L35 91.1875Z" fill="white"/>
<path fill-rule="evenodd" clip-rule="evenodd" d="M26.3394 93.4844L13.3592 80.3872L10.1142 91.4695L15.3562 96.7587L26.3394 93.4844ZM13.172 98.207L8.80365 93.6104L3 99.4663L7.55556 104L13.172 98.207ZM36.8858 23.9052L39.5068 24.7868C38.3836 21.6384 38.3836 22.6459 39.5068 19.4975C36.3866 20.6939 37.3851 20.6939 34.2648 19.4975C35.4505 22.6459 35.4505 21.6384 34.2648 24.7868L36.8858 23.9052ZM74.0791 12.9489C77.0122 14.3342 76.3257 13.5786 77.6362 16.538C79.0091 13.6415 78.3227 14.3342 81.1933 12.9489C78.3227 11.6266 79.0091 12.3192 77.6362 9.35973C76.3257 12.3192 77.0122 11.6266 74.0791 12.9489ZM84.9376 64.7712C81.8173 65.9046 82.8782 65.9046 79.758 64.7712C80.9437 67.9196 80.9437 66.8491 79.758 69.9975L82.379 69.116L85 69.9975C83.8143 66.8491 83.8143 67.9196 85 64.7712H84.9376ZM49.1796 8.28928C52.2998 7.09289 51.239 7.09289 54.3592 8.28928C53.2359 5.1409 53.2359 6.14838 54.3592 3C51.239 4.13342 52.2998 4.13342 49.1796 3C50.3029 6.14838 50.3029 5.1409 49.1796 8.28928Z" fill="#CAE5FD"/>
</svg>
