<svg width="60" height="60" viewBox="0 0 60 60" fill="none" xmlns="http://www.w3.org/2000/svg">
<g clip-path="url(#clip0_1_371)">
<path d="M30 25C27.243 25 25 27.243 25 30C25 32.757 27.243 35 30 35C32.757 35 35 32.757 35 30C35 27.243 32.757 25 30 25Z" fill="#2B90FB"/>
<path d="M30 25C27.243 25 25 27.243 25 30C25 32.757 27.243 35 30 35C32.757 35 35 32.757 35 30C35 27.243 32.757 25 30 25Z" fill="url(#paint0_linear_1_371)"/>
<path d="M36.3242 16H23.6758C19.4433 16 16 19.4433 16 23.6758V36.3242C16 40.5567 19.4433 44 23.6758 44H36.3242C40.5567 44 44 40.5567 44 36.3242V23.6758C44 19.4433 40.5567 16 36.3242 16ZM30 37.6799C25.7653 37.6799 22.3202 34.2347 22.3202 30C22.3202 25.7653 25.7653 22.3202 30 22.3202C34.2347 22.3202 37.6799 25.7653 37.6799 30C37.6799 34.2347 34.2347 37.6799 30 37.6799ZM38.1392 24.1942C36.8526 24.1942 35.8059 23.1474 35.8059 21.8609C35.8059 20.5743 36.8526 19.5275 38.1392 19.5275C39.4258 19.5275 40.4725 20.5742 40.4725 21.8608C40.4725 23.1474 39.4258 24.1942 38.1392 24.1942Z" fill="#2B90FB"/>
<path d="M36.3242 16H23.6758C19.4433 16 16 19.4433 16 23.6758V36.3242C16 40.5567 19.4433 44 23.6758 44H36.3242C40.5567 44 44 40.5567 44 36.3242V23.6758C44 19.4433 40.5567 16 36.3242 16ZM30 37.6799C25.7653 37.6799 22.3202 34.2347 22.3202 30C22.3202 25.7653 25.7653 22.3202 30 22.3202C34.2347 22.3202 37.6799 25.7653 37.6799 30C37.6799 34.2347 34.2347 37.6799 30 37.6799ZM38.1392 24.1942C36.8526 24.1942 35.8059 23.1474 35.8059 21.8609C35.8059 20.5743 36.8526 19.5275 38.1392 19.5275C39.4258 19.5275 40.4725 20.5742 40.4725 21.8608C40.4725 23.1474 39.4258 24.1942 38.1392 24.1942Z" fill="url(#paint1_linear_1_371)"/>
</g>
<rect x="1" y="1" width="58" height="58" rx="29" stroke="#E0E0E0" stroke-width="2"/>
<defs>
<linearGradient id="paint0_linear_1_371" x1="24.693" y1="30.4615" x2="35.2632" y2="30.4615" gradientUnits="userSpaceOnUse">
<stop stop-color="#2B90FB"/>
<stop offset="1" stop-color="#006AD9"/>
</linearGradient>
<linearGradient id="paint1_linear_1_371" x1="15.1404" y1="31.2923" x2="44.7368" y2="31.2923" gradientUnits="userSpaceOnUse">
<stop stop-color="#2B90FB"/>
<stop offset="1" stop-color="#006AD9"/>
</linearGradient>
<clipPath id="clip0_1_371">
<rect width="28" height="28" fill="white" transform="translate(16 16)"/>
</clipPath>
</defs>
</svg>
