<svg width="139" height="133" viewBox="0 0 139 133" fill="none" xmlns="http://www.w3.org/2000/svg">
<ellipse cx="54.6071" cy="70.1574" rx="54.6071" ry="54.8625" fill="#E6F1FF"/>
<path d="M27.1449 66.5228C27.6022 61.376 28.0203 56.3579 28.4686 51.2141C28.9064 46.1919 30.5586 44.5582 35.749 44.5582C51.5907 44.5552 67.5635 44.5521 83.4023 44.5582C86.8686 44.5582 88.7075 45.3206 90.0208 48.5518C92.2504 54.0419 94.3767 59.0511 96.6394 64.526C97.1042 65.6563 98.0817 66.5228 99.2868 66.5228C106.048 66.5289 112.381 66.5289 119.142 66.5228C123.313 66.5183 126.436 67.7781 126.423 72.5132C126.408 76.8366 126.429 81.4956 126.423 85.8251C126.418 89.708 125.752 92.2397 121.79 93.1466C121.633 93.1831 121.799 92.9886 121.79 93.1466C120.756 113.641 91.8591 113.313 91.3445 93.1466C91.3415 93.0251 91.504 93.1466 91.3445 93.1466H56.2664C56.1219 93.1466 55.6226 93.0008 55.6045 93.1466C54.923 98.5653 53.7837 102.799 48.986 105.793C38.8536 112.114 25.8392 105.319 25.8212 93.1466C25.8212 92.9765 25.3278 93.1618 25.1593 93.1466C18.4119 92.5223 19.6704 85.4767 19.8645 79.8347C19.8705 79.6676 20.027 79.1327 19.8645 79.1691C16.0372 80.0259 9.95025 80.0791 9.93671 74.51C9.92769 69.9465 9.92468 65.7585 9.93671 61.1981C9.94574 57.297 11.0341 54.7928 15.2315 54.5421C24.6102 53.9861 23.1377 60.1835 23.1738 66.5228C23.1738 66.6839 23.0173 67.231 23.1738 67.1884C24.4435 66.839 25.824 66.3922 27.1449 66.5228C27.3104 66.538 27.1298 66.693 27.1449 66.5228Z" stroke="#1E81CE" stroke-width="2"/>
<path d="M31.7777 49.8835C31.8493 49.1071 32.8679 47.8867 33.7632 47.8867C39.7887 47.8837 46.2212 47.9082 52.957 47.8867C52.9913 47.8872 52.9265 47.8704 52.957 47.8867C52.9874 47.903 52.9369 47.8581 52.957 47.8867C52.977 47.9153 52.9516 47.8519 52.957 47.8867C52.9623 47.9215 52.9675 47.8532 52.957 47.8867C52.6585 48.8361 52.3816 50.0478 52.2951 51.2147C51.9817 55.4963 51.9615 60.2419 51.6332 64.5266C51.499 66.3091 50.8391 67.1752 48.9858 67.189C42.9693 67.2257 36.5212 67.2073 30.454 67.189C30.2898 67.189 30.442 67.3574 30.454 67.189C30.9016 61.5782 31.2733 55.4606 31.7777 49.8835Z" stroke="#1E81CE" stroke-width="2"/>
<path d="M123.775 83.1632C123.793 83.2084 123.76 83.7867 123.775 83.8288C123.82 83.9612 123.916 83.8288 123.775 83.8288H119.142C119.006 83.8288 118.57 83.9341 118.48 83.8288C112.272 76.4381 101.514 76.2982 95.3151 83.8288C95.2249 83.9401 94.7976 83.8288 94.6533 83.8288H52.9566C52.8152 83.8288 52.3849 83.9401 52.2947 83.8288C46.1046 76.1945 35.4237 76.5464 29.1299 83.8288C29.0366 83.9371 28.6124 83.8288 28.468 83.8288H23.1732C23.0228 83.8288 23.1732 83.9792 23.1732 83.8288C23.1552 80.0658 23.1552 76.2768 23.1732 72.5137C23.1867 70.0817 24.5379 69.8604 26.4825 69.8513C33.8666 69.8213 41.5982 69.8634 48.9854 69.8513C52.5407 69.8468 53.9464 68.1046 54.2803 64.5266C54.7104 59.8942 55.237 55.1845 55.604 50.5491C55.6987 49.3354 56.3172 47.8867 57.5895 47.8867C66.8746 47.8927 76.0992 47.8897 85.3873 47.8867C85.9242 47.8867 87.1292 48.6404 87.3729 49.2179C89.8303 55.0956 92.2199 61.3023 94.6533 67.189C95.5646 69.3954 97.5478 69.8559 99.9481 69.8513C106.929 69.8453 114.146 69.8423 121.127 69.8513C123.744 69.8559 124.118 71.8957 123.775 73.8449C123.748 74.0013 123.266 74.5346 123.113 74.5105C121.66 74.312 118.715 73.6014 118.48 75.1761C118.11 77.6622 121.732 77.1233 123.113 77.1729C123.278 77.1759 123.766 77.0074 123.775 77.1729C123.883 79.1612 123.895 81.208 123.775 83.1632C123.772 83.2084 123.76 83.1181 123.775 83.1632Z" stroke="#1E81CE" stroke-width="2"/>
<path d="M12.5833 59.2016C12.5838 58.9109 12.4708 58.8044 12.5833 58.536C12.6957 58.2676 13.038 58.0756 13.2452 57.8704C13.4524 57.6652 13.6366 57.3156 13.9071 57.2048C14.1775 57.094 14.2764 57.2043 14.569 57.2048H17.8785C18.171 57.2053 18.2703 57.0931 18.5404 57.2048C18.8105 57.3165 18.9958 57.6645 19.2023 57.8704C19.4088 58.0763 19.7527 58.2673 19.8642 58.536C19.9757 58.8047 19.8647 58.9109 19.8642 59.2016V74.5103C19.8637 74.801 19.9766 74.9075 19.8642 75.1759C19.7518 75.4442 19.4095 75.6363 19.2023 75.8415C18.9951 76.0467 18.8109 76.3963 18.5404 76.5071C18.2699 76.6178 18.171 76.5076 17.8785 76.5071H14.569C14.2765 76.5066 14.1771 76.6188 13.9071 76.5071C13.637 76.3954 13.4516 76.0474 13.2452 75.8415C13.0387 75.6356 12.6947 75.4446 12.5833 75.1759C12.4718 74.9071 12.5827 74.801 12.5833 74.5103V59.2016Z" stroke="#1E81CE" stroke-width="2"/>
<path d="M93.9917 93.1467C93.9917 89.881 95.0047 86.8032 97.3009 84.494C99.5972 82.1848 103.319 81.166 106.567 81.166C109.814 81.166 112.875 82.1848 115.171 84.494C117.467 86.8032 118.48 89.881 118.48 93.1467C118.48 96.4125 117.467 100.156 115.171 102.465C112.875 104.774 109.814 105.793 106.567 105.793C103.319 105.793 99.5972 104.774 97.3009 102.465C95.0047 100.156 93.9917 96.4125 93.9917 93.1467Z" stroke="#1E81CE" stroke-width="2"/>
<path d="M28.4685 93.8123C28.4685 90.5466 29.4815 86.8032 31.7778 84.494C34.074 82.1848 37.1345 81.166 40.3818 81.166C43.6292 81.166 47.3515 82.1848 49.6478 84.494C51.944 86.8032 52.957 90.5466 52.957 93.8123C52.957 95.4294 52.9105 96.9775 52.2952 98.4715C51.6798 99.9654 50.7848 101.322 49.6478 102.465C48.5108 103.608 47.1622 104.509 45.6767 105.127C44.1911 105.746 41.9898 105.793 40.3818 105.793C38.7739 105.793 37.2344 105.746 35.7489 105.127C34.2633 104.509 32.9147 103.608 31.7778 102.465C30.6408 101.322 29.7457 99.9654 29.1303 98.4715C28.515 96.9775 28.4685 95.4294 28.4685 93.8123Z" stroke="#1E81CE" stroke-width="2"/>
<path d="M120.466 86.4905C121.361 86.3617 122.902 86.2422 123.775 86.4905C123.878 86.5181 123.854 87.0794 123.775 87.1561C123.389 87.5331 123.28 88.0873 123.113 88.4873C122.815 89.2075 122.565 89.6744 121.789 89.8184C121.608 89.8522 121.18 90.0023 121.128 89.8184L120.466 87.1561C120.419 86.9936 120.305 86.515 120.466 86.4905Z" stroke="#1E81CE" stroke-width="2"/>
<path d="M92.668 87.1565C92.6513 87.1594 92.6807 87.1444 92.668 87.1565C92.6553 87.1686 92.6729 87.1389 92.668 87.1565L91.3443 89.8189C91.3386 89.8387 91.3596 89.8066 91.3443 89.8189C91.3289 89.8312 91.3634 89.8188 91.3443 89.8189H55.6043C55.5857 89.8192 55.6196 89.8303 55.6043 89.8189C55.589 89.8075 55.6107 89.8378 55.6043 89.8189L54.2806 86.4909C54.2754 86.476 54.2787 86.5067 54.2806 86.4909C54.2824 86.4751 54.2721 86.5039 54.2806 86.4909C54.289 86.4779 54.2675 86.4982 54.2806 86.4909C54.2936 86.4837 54.2659 86.4907 54.2806 86.4909H93.9917C94.0156 86.4896 93.974 86.4735 93.9917 86.4909C94.0094 86.5084 93.9905 86.465 93.9917 86.4909C93.9929 86.5169 94.0077 86.4717 93.9917 86.4909C93.9757 86.5102 94.0156 86.4896 93.9917 86.4909L92.668 87.1565Z" stroke="#1E81CE" stroke-width="2"/>
<path d="M25.1594 89.8181C23.5175 90.0175 22.2701 88.1277 22.5118 86.4901C22.5362 86.3256 22.3507 86.4901 22.5118 86.4901H26.4833C26.617 86.4901 26.5289 86.3572 26.4833 86.4901L25.1594 89.8181C25.1199 89.932 25.275 89.8023 25.1594 89.8181Z" stroke="#1E81CE" stroke-width="2"/>
<path d="M60.8995 55.8731C61.1585 53.6982 63.2815 51.2683 65.5325 51.2139C67.5006 51.1626 72.6317 51.1716 80.0932 51.2139C83.1838 51.232 84.2625 52.2532 85.388 55.2075C86.5075 58.1406 87.5897 61.5867 88.6973 64.5258C90.1845 68.4588 88.6296 69.8506 84.7262 69.8506C78.7772 69.8475 72.8081 69.8506 66.8562 69.8506C63.9799 69.8506 61.1041 69.3907 60.2376 66.5226C59.5052 64.1121 60.5377 58.8862 60.8995 55.8731Z" stroke="#1E81CE" stroke-width="2"/>
<path d="M58.9129 75.1759C58.9148 74.8411 59.3075 74.7458 59.5748 74.5103C59.8421 74.2748 59.8606 73.843 60.2367 73.8447H65.5319C65.9079 73.8465 65.9293 74.2723 66.1938 74.5103C66.4583 74.7483 66.8577 74.8411 66.8557 75.1759V75.1759C66.8537 75.5107 66.4611 75.606 66.1938 75.8415C65.9265 76.077 65.9079 76.5089 65.5319 76.5071H60.2367C59.8606 76.5054 59.8393 76.0795 59.5748 75.8415C59.3102 75.6035 58.9109 75.5107 58.9129 75.1759V75.1759Z" stroke="#1E81CE" stroke-width="2"/>
<path d="M63.5469 55.8738C63.6426 55.2081 64.1458 53.8771 64.8706 53.8771C69.9489 53.8651 75.0119 53.8681 80.0932 53.8771C80.663 53.8771 81.8372 54.6144 82.0788 55.2082C83.5345 58.813 84.6823 62.214 86.0499 65.8578C86.0955 65.9747 86.1775 66.5204 86.0499 66.5234C80.7042 66.6913 74.8553 66.6613 69.5036 66.5234C67.785 66.4784 61.8084 67.1718 62.2232 63.861C62.5757 61.057 63.1549 58.6659 63.5469 55.8738Z" stroke="#1E81CE" stroke-width="2"/>
<path d="M27.1449 66.5228C25.824 66.3922 24.4435 66.839 23.1738 67.1884C23.0173 67.231 23.1738 66.6839 23.1738 66.5228C23.1377 60.1835 24.6102 53.9861 15.2315 54.5421C11.0341 54.7928 9.94574 57.297 9.93671 61.1981C9.92468 65.7585 9.92769 69.9465 9.93671 74.51C9.95025 80.0791 16.0372 80.0259 19.8645 79.1691C20.027 79.1327 19.8705 79.6676 19.8645 79.8347C19.6704 85.4767 18.4119 92.5223 25.1593 93.1466C25.3278 93.1618 25.8212 92.9765 25.8212 93.1466C25.8392 105.319 38.8536 112.114 48.986 105.793C53.7837 102.799 54.923 98.5653 55.6045 93.1466C55.6226 93.0008 56.1219 93.1466 56.2664 93.1466H91.3445C91.504 93.1466 91.3415 93.0251 91.3445 93.1466C91.8591 113.313 120.756 113.641 121.79 93.1466C121.799 92.9886 121.633 93.1831 121.79 93.1466C125.752 92.2397 126.418 89.708 126.423 85.8251C126.429 81.4956 126.408 76.8366 126.423 72.5132C126.436 67.7781 123.313 66.5183 119.142 66.5228C112.381 66.5289 106.048 66.5289 99.2868 66.5228C98.0817 66.5228 97.1042 65.6563 96.6394 64.526C94.3767 59.0511 92.2504 54.0419 90.0208 48.5518C88.7075 45.3206 86.8686 44.5582 83.4023 44.5582C67.5635 44.5521 51.5907 44.5552 35.749 44.5582C30.5586 44.5582 28.9064 46.1919 28.4686 51.2141C28.0203 56.3579 27.6022 61.376 27.1449 66.5228C27.1298 66.693 27.3104 66.538 27.1449 66.5228ZM31.7778 49.883C31.8501 49.1128 32.8607 47.8862 33.7634 47.8862C39.8383 47.8831 46.1661 47.9074 52.9571 47.8862C52.9917 47.8866 52.9264 47.87 52.9571 47.8862C52.9878 47.9023 52.9369 47.8578 52.9571 47.8862C52.9773 47.9145 52.9517 47.8517 52.9571 47.8862C52.9625 47.9207 52.9677 47.8529 52.9571 47.8862C52.6562 48.828 52.3825 50.0566 52.2953 51.2141C51.9793 55.4616 51.9644 59.6099 51.6334 63.8604C51.498 65.6287 50.8545 66.5092 48.986 66.5228C42.9201 66.5593 36.5712 66.5411 30.4541 66.5228C30.2886 66.5228 30.4421 66.6899 30.4541 66.5228C30.9055 60.9568 31.2693 55.4156 31.7778 49.883ZM123.113 83.1627C123.132 83.2083 123.76 83.7858 123.775 83.8283C123.82 83.962 123.255 83.8283 123.113 83.8283H118.48C118.345 83.8283 118.571 83.9346 118.48 83.8283C112.27 76.3633 100.855 76.222 94.6538 83.8283C94.5635 83.9407 94.7982 83.8283 94.6538 83.8283H52.2953C52.1538 83.8283 52.3855 83.9407 52.2953 83.8283C46.103 76.1172 35.4265 76.4727 29.1304 83.8283C29.0372 83.9377 28.613 83.8283 28.4686 83.8283H23.1738C23.0233 83.8283 23.1738 83.9802 23.1738 83.8283C23.1557 80.0274 23.1557 76.314 23.1738 72.5132C23.1873 70.0568 24.5378 69.8599 26.483 69.8508C33.8698 69.8204 40.9343 69.863 48.3241 69.8508C51.8806 69.8462 53.9468 68.14 54.2808 64.526C54.7111 59.8471 55.2374 54.5649 55.6045 49.883C55.6993 48.657 56.3173 47.8862 57.5901 47.8862C66.8785 47.8922 76.0964 47.8892 85.3879 47.8862C85.925 47.8862 86.4679 48.634 86.7116 49.2174C89.1698 55.1541 92.2196 60.577 94.6538 66.5228C95.5655 68.7514 97.5475 69.8554 99.9486 69.8508C106.932 69.8447 114.144 69.8417 121.128 69.8508C123.746 69.8554 123.456 71.8756 123.113 73.8444C123.086 74.0024 123.267 73.8687 123.113 73.8444C121.66 73.6438 118.715 73.585 118.48 75.1756C118.11 77.6867 121.732 77.1222 123.113 77.1723C123.279 77.1754 123.104 77.0052 123.113 77.1723C123.222 79.1806 123.234 81.1878 123.113 83.1627C123.11 83.2083 123.098 83.1171 123.113 83.1627ZM12.5841 59.8669C12.5846 59.5736 13.1344 58.8064 13.246 58.5357C13.3576 58.2649 13.0403 58.0771 13.246 57.8701C13.4517 57.6631 14.3012 57.9818 14.5697 57.8701C14.8382 57.7583 14.9411 57.204 15.2315 57.2045H17.8789C18.1694 57.205 18.2727 57.7574 18.5408 57.8701C18.8089 57.9828 18.9976 57.6624 19.2026 57.8701C19.4076 58.0778 19.7538 58.2646 19.8645 58.5357C19.9752 58.8068 19.865 59.5736 19.8645 59.8669V74.51C19.864 74.8032 19.9761 74.9048 19.8645 75.1756C19.7529 75.4463 19.4084 75.6341 19.2026 75.8412C18.9969 76.0482 18.8093 76.395 18.5408 76.5067C18.2723 76.6185 18.1694 76.5073 17.8789 76.5067H15.2315C14.9411 76.5062 14.1759 76.6194 13.9078 76.5067C13.6397 76.394 13.451 76.0489 13.246 75.8412C13.041 75.6334 13.3566 75.4467 13.246 75.1756C13.1353 74.9044 12.5836 74.8032 12.5841 74.51V59.8669ZM94.6538 93.1466C94.6538 89.911 95.6972 86.7818 97.9631 84.4939C100.229 82.2059 103.363 81.1659 106.567 81.1659C109.772 81.1659 112.905 82.2059 115.171 84.4939C117.437 86.7818 118.48 89.911 118.48 93.1466C118.48 96.3823 117.437 99.5114 115.171 101.799C112.905 104.087 109.772 105.127 106.567 105.127C103.363 105.127 100.229 104.087 97.9631 101.799C95.6972 99.5114 94.6538 96.3823 94.6538 93.1466ZM28.4686 93.1466C28.4686 89.911 29.512 86.7818 31.7778 84.4939C34.0437 82.2059 37.1775 81.1659 40.3819 81.1659C43.5863 81.1659 46.7202 82.2059 48.986 84.4939C51.2518 86.7818 52.9571 89.911 52.9571 93.1466C52.9571 94.7488 52.2406 96.3256 51.6334 97.8058C51.0262 99.286 50.1079 100.666 48.986 101.799C47.8641 102.932 46.4808 103.849 45.0149 104.462C43.549 105.075 41.9686 105.127 40.3819 105.127C38.7953 105.127 37.2148 105.075 35.749 104.462C34.2831 103.849 32.8998 102.932 31.7778 101.799C30.6559 100.666 29.7376 99.286 29.1304 97.8058C28.5232 96.3256 28.4686 94.7488 28.4686 93.1466ZM120.466 87.1563C121.387 87.0287 122.877 86.9102 123.775 87.1563C123.881 87.1836 123.857 87.0803 123.775 87.1563C123.378 87.53 123.285 88.091 123.113 88.4875C122.807 89.2014 122.587 89.6758 121.79 89.8186C121.603 89.8521 121.182 90.0009 121.128 89.8186L120.466 87.1563C120.418 86.9952 120.301 87.1806 120.466 87.1563ZM92.6682 87.1563C92.6515 87.159 92.681 87.145 92.6682 87.1563C92.6555 87.1676 92.6731 87.1399 92.6682 87.1563L92.0064 89.8186C92.0007 89.8371 92.0218 89.8072 92.0064 89.8186C91.991 89.8301 91.3637 89.8186 91.3445 89.8186H55.6045C55.5859 89.8189 55.6199 89.8292 55.6045 89.8186C55.5892 89.808 55.611 89.8362 55.6045 89.8186L54.2808 87.1563C54.2757 87.1424 54.2789 87.171 54.2808 87.1563C54.2827 87.1416 54.2724 86.5028 54.2808 86.4907C54.2893 86.4785 54.2677 86.4974 54.2808 86.4907C54.2939 86.4839 54.2661 86.4905 54.2808 86.4907H93.992C94.0159 86.4895 93.9742 86.4744 93.992 86.4907C94.0097 86.5069 93.9908 87.1321 93.992 87.1563C93.9931 87.1804 94.008 87.1383 93.992 87.1563C93.9759 87.1742 94.0159 87.1551 93.992 87.1563H92.6682ZM25.8212 89.8186C24.1964 90.0101 22.9346 88.7286 23.1738 87.1563C23.1978 86.9983 23.0143 86.4907 23.1738 86.4907H26.483C26.6154 86.4907 26.5282 87.0287 26.483 87.1563L25.8212 89.8186C25.7821 89.928 25.9355 89.8035 25.8212 89.8186Z" fill="#1E81CE"/>
<path d="M123.113 83.1623C123.233 81.2071 123.221 79.1602 123.113 77.1719C123.104 77.0065 122.616 77.1749 122.451 77.1719C121.08 77.1223 117.451 77.6613 117.818 75.1751C118.051 73.6004 121.008 74.311 122.451 74.5095C122.604 74.5336 123.086 74.0004 123.113 73.8439C123.454 71.8947 123.065 69.8549 120.466 69.8504C113.53 69.8413 106.884 69.8444 99.9483 69.8504C97.5638 69.8549 94.897 69.3944 93.9916 67.188C91.5743 61.3013 89.1525 55.0946 86.7113 49.2169C86.4692 48.6394 85.9209 47.8857 85.3876 47.8857C76.1604 47.8888 66.814 47.8918 57.5898 47.8857C56.3258 47.8857 55.6983 49.3344 55.6042 50.5481C55.2397 55.1835 54.7078 59.8932 54.2805 64.5256C53.9488 68.1037 51.8557 69.8459 48.3238 69.8504C40.9851 69.8624 33.8184 69.8203 26.4827 69.8504C24.5509 69.8594 23.1869 70.0808 23.1734 72.5128C23.1555 76.2758 23.1555 80.0648 23.1734 83.8279C23.1734 83.9783 23.024 83.8279 23.1734 83.8279H28.4683C28.6117 83.8279 29.0375 83.9362 29.1301 83.8279C35.3827 76.5454 46.1455 76.1935 52.2949 83.8279C52.3846 83.9392 52.1545 83.8279 52.2949 83.8279H93.9916C94.1351 83.8279 94.5639 83.9392 94.6535 83.8279C100.812 76.2973 111.651 76.4371 117.818 83.8279C117.908 83.9331 118.346 83.8279 118.48 83.8279H123.113C123.254 83.8279 123.158 83.9602 123.113 83.8279C123.098 83.7858 123.131 83.2074 123.113 83.1623C123.098 83.1172 123.11 83.2074 123.113 83.1623ZM60.899 55.8729C61.159 53.7071 63.273 51.2679 65.532 51.2137C67.5071 51.1626 71.9428 51.1716 79.4309 51.2137C82.5325 51.2318 84.2581 52.2654 85.3876 55.2073C86.5111 58.1281 87.5853 61.5988 88.6968 64.5256C90.1894 68.4421 87.9812 69.8504 84.0639 69.8504C78.0937 69.8474 72.167 69.8504 66.1938 69.8504C63.3074 69.8504 61.1067 69.3785 60.2372 66.5224C59.5021 64.122 60.536 58.8734 60.899 55.8729ZM58.9135 75.1751C58.9154 74.803 58.6507 74.7713 58.9135 74.5095C59.1762 74.2478 59.8675 73.842 60.2372 73.8439H65.532C65.9017 73.8459 65.9338 74.245 66.1938 74.5095C66.4539 74.7741 66.8576 75.4686 66.8557 75.8407V75.8407C66.8538 76.2129 66.4566 76.2445 66.1938 76.5063C65.9311 76.7681 65.2398 77.1739 64.8701 77.1719H60.2372C59.8675 77.17 59.1735 76.7709 58.9135 76.5063C58.6534 76.2418 58.9115 76.2129 58.9135 75.8407V75.1751Z" fill="#9BC9FF"/>
<path d="M65.5322 51.2139C63.2812 51.2683 61.1583 53.6982 60.8992 55.8731C60.5375 58.8862 59.5049 64.1121 60.2374 66.5226C61.1038 69.3908 63.9797 69.8506 66.8559 69.8506C72.8079 69.8506 78.7769 69.8475 84.7259 69.8506C88.6294 69.8506 90.1843 68.4588 88.697 64.5258C87.5894 61.5867 86.5073 58.1406 85.3878 55.2075C84.2623 52.2532 83.1836 51.232 80.093 51.2139C72.6314 51.1716 67.5003 51.1626 65.5322 51.2139ZM64.2085 55.8731C64.3023 55.2025 64.8221 54.5419 65.5322 54.5419C70.5076 54.5298 75.7765 54.5328 80.7548 54.5419C81.3131 54.5419 81.8418 55.275 82.0785 55.8731C83.5047 59.504 85.3716 62.8524 86.7115 66.5226C86.7561 66.6404 86.1747 66.5196 86.0496 66.5226C80.8122 66.6918 76.0704 66.6615 70.827 66.5226C69.1433 66.4773 62.4784 67.8607 62.8848 64.5258C63.2302 61.7014 63.8244 58.6854 64.2085 55.8731Z" fill="#1E81CE"/>
<path d="M14.5688 57.1958L17.8783 57.2016C19.1301 57.2038 19.8627 57.9728 19.8606 59.2019L19.834 74.5105C19.8319 75.7396 19.0966 76.506 17.8448 76.5038L14.5353 76.498C13.2835 76.4958 12.5509 75.7268 12.5531 74.4977L12.5796 59.1891C12.5817 57.96 13.317 57.1936 14.5688 57.1958Z" fill="#9BC9FF"/>
<path d="M60.2365 73.8098L65.5317 73.8378C66.3148 73.8419 66.8522 74.4724 66.8485 75.1759C66.8449 75.8794 66.301 76.5042 65.5178 76.5001L60.2227 76.4722C59.4395 76.4681 58.9021 75.8376 58.9058 75.134C58.9095 74.4305 59.4534 73.8057 60.2365 73.8098Z" fill="#1E81CE"/>
<path d="M123.775 86.4905C122.901 86.2422 121.361 86.3617 120.465 86.4905C120.304 86.515 120.419 86.9936 120.465 87.1561L121.127 89.8184C121.18 90.0023 121.608 89.8522 121.789 89.8184C122.565 89.6744 122.815 89.2075 123.113 88.4873C123.28 88.0873 123.389 87.5331 123.775 87.1561C123.854 87.0794 123.877 86.5181 123.775 86.4905Z" fill="#9BC9FF"/>
<path d="M92.6681 87.1565L93.9918 86.4909C94.0153 86.4896 93.9761 86.5102 93.9918 86.4909C94.0076 86.4717 93.993 86.5169 93.9918 86.4909C93.9906 86.465 94.0092 86.5084 93.9918 86.4909C93.9744 86.4735 94.0153 86.4896 93.9918 86.4909H54.9425C54.9282 86.4907 54.9554 86.4837 54.9425 86.4909C54.9297 86.4982 54.9508 86.4779 54.9425 86.4909C54.9343 86.5039 54.9444 86.4751 54.9425 86.4909C54.9407 86.5067 54.9375 86.476 54.9425 86.4909L56.2662 89.8189C56.2726 89.8378 56.2512 89.8075 56.2662 89.8189C56.2813 89.8303 56.248 89.8192 56.2662 89.8189H91.3444C91.3632 89.8188 91.3293 89.8312 91.3444 89.8189C91.3595 89.8066 91.3388 89.8387 91.3444 89.8189L92.6681 87.1565C92.6729 87.1389 92.6556 87.1686 92.6681 87.1565C92.6806 87.1444 92.6517 87.1594 92.6681 87.1565Z" fill="#9BC9FF"/>
<path d="M23.1734 86.4901C22.9317 88.1277 24.1791 90.0175 25.8211 89.8181C25.9366 89.8023 25.7815 89.932 25.8211 89.8181L27.1449 86.4901C27.1905 86.3572 27.2787 86.4901 27.1449 86.4901H23.1734C23.0123 86.4901 23.1978 86.3256 23.1734 86.4901Z" fill="#9BC9FF"/>
<path d="M93.9919 86.4902V87.1552" stroke="#1E81CE" stroke-width="3" stroke-linecap="round"/>
<path d="M93.9921 86.4902C93.6898 86.7931 93.4336 87.4028 93.3302 87.8214C93.2703 88.0643 93.2999 87.9937 93.3302 87.8214C93.3592 87.657 93.2295 87.2851 93.3302 87.1558C93.39 87.0792 93.3302 86.5878 93.3302 86.4902" stroke="#1E81CE" stroke-width="3" stroke-linecap="round"/>
<path d="M123.775 86.4912C123.775 86.8214 123.775 87.4957 123.775 87.8224C123.775 87.8434 123.775 87.8813 123.775 87.8224C123.775 87.7757 123.775 87.2074 123.775 87.1568C123.775 87.0036 123.775 87.3054 123.775 87.1568C123.775 87.0473 123.775 86.577 123.775 86.4912C123.775 86.466 123.775 86.467 123.775 86.4912C123.775 86.6079 123.775 87.0386 123.775 87.1568C123.775 87.238 123.775 87.0728 123.775 87.1568C123.775 87.3306 123.775 87.6478 123.775 87.8224" stroke="#1E81CE" stroke-width="3" stroke-linecap="round"/>
</svg>
