<svg width="74" height="74" viewBox="0 0 74 74" fill="none" xmlns="http://www.w3.org/2000/svg">
<path d="M37 71.125C55.8467 71.125 71.125 55.8467 71.125 37C71.125 18.1533 55.8467 2.875 37 2.875C18.1533 2.875 2.875 18.1533 2.875 37C2.875 55.8467 18.1533 71.125 37 71.125Z" fill="#D1E8FD"/>
<path d="M38.9962 20.9858L42.4404 27.9619C42.7646 28.6201 43.391 29.0759 44.1174 29.1807L51.8175 30.2995C52.2288 30.359 52.6152 30.5324 52.933 30.8002C53.2508 31.068 53.4872 31.4194 53.6156 31.8146C53.744 32.2099 53.7591 32.6331 53.6593 33.0365C53.5595 33.4399 53.3487 33.8073 53.0508 34.0971L47.4787 39.5279C47.22 39.78 47.0265 40.0912 46.9148 40.4347C46.8031 40.7783 46.7766 41.1438 46.8377 41.4998L48.1539 49.1682C48.2239 49.5778 48.1779 49.9987 48.0211 50.3835C47.8644 50.7684 47.6032 51.1017 47.267 51.3458C46.9308 51.59 46.533 51.7353 46.1186 51.7652C45.7042 51.7952 45.2896 51.7087 44.9218 51.5155L38.0358 47.8958C37.7164 47.7278 37.3609 47.64 36.9999 47.64C36.639 47.64 36.2834 47.7278 35.964 47.8958L29.078 51.5155C28.7102 51.7087 28.2956 51.7952 27.8812 51.7652C27.4668 51.7353 27.069 51.59 26.7328 51.3458C26.3966 51.1017 26.1354 50.7684 25.9787 50.3835C25.822 49.9987 25.776 49.5778 25.8459 49.1682L27.1622 41.4998C27.2234 41.1438 27.197 40.7782 27.0853 40.4346C26.9736 40.0911 26.78 39.7799 26.5211 39.5279L20.949 34.0996C20.6511 33.8098 20.4403 33.4424 20.3405 33.039C20.2407 32.6356 20.2559 32.2123 20.3842 31.8171C20.5126 31.4218 20.7491 31.0704 21.0668 30.8026C21.3846 30.5349 21.7711 30.3614 22.1823 30.3019L29.8824 29.1831C30.2399 29.1315 30.5795 28.9936 30.8717 28.7812C31.1639 28.5689 31.3999 28.2885 31.5594 27.9644L35.0036 20.9883C35.187 20.6154 35.4711 20.3014 35.8238 20.0817C36.1765 19.8619 36.5836 19.7454 36.9992 19.7451C37.4147 19.7449 37.822 19.8609 38.1749 20.0802C38.5279 20.2995 38.8124 20.6132 38.9962 20.9858Z" fill="white"/>
<path d="M37 17.5518C35.306 17.5518 33.7874 18.4975 33.0367 20.0161L29.5657 27.0117L21.8656 28.1281C21.048 28.2447 20.2797 28.5891 19.6486 29.1219C19.0175 29.6547 18.5492 30.3544 18.2971 31.1408C18.039 31.9244 18.0074 32.7648 18.2057 33.5656C18.4041 34.3663 18.8244 35.0948 19.4183 35.6673L24.9978 41.1273L23.684 48.7957C23.5409 49.609 23.6301 50.4462 23.9414 51.2111C24.2527 51.976 24.7735 52.6375 25.4438 53.1198C26.1104 53.6054 26.8998 53.8943 27.7223 53.9538C28.5448 54.0132 29.3676 53.8408 30.097 53.4562L37.0147 49.8365L43.903 53.4562C44.6319 53.8428 45.455 54.0163 46.278 53.9568C47.1009 53.8973 47.8905 53.6073 48.5562 53.1198C49.9285 52.1229 50.6037 50.4654 50.3161 48.7957L49.012 41.098L54.5817 35.6673C55.1756 35.0943 55.5959 34.3653 55.7942 33.5642C55.9926 32.7631 55.9609 31.9223 55.703 31.1384C55.4517 30.3515 54.9835 29.6514 54.3523 29.1185C53.7211 28.5856 52.9524 28.2415 52.1345 28.1257L44.4076 26.9898L40.9634 20.0112C40.5999 19.2708 40.0355 18.6476 39.3347 18.2127C38.6339 17.7778 37.8248 17.5488 37 17.5518ZM43.8007 31.3529L51.5202 32.5278L45.9505 37.9585C45.4363 38.4585 45.0519 39.0763 44.8305 39.7585C44.6092 40.4407 44.5578 41.1666 44.6806 41.8732L45.9481 49.5757L39.0597 45.956C38.4253 45.6223 37.7193 45.4479 37.0025 45.4479C36.2857 45.4479 35.5796 45.6223 34.9452 45.956L28.0081 49.544L29.3219 41.878C29.4449 41.1711 29.3936 40.4448 29.1723 39.7622C28.951 39.0796 28.5664 38.4613 28.052 37.961L22.5018 32.4717L30.1994 31.3529C30.9086 31.2511 31.5822 30.9778 32.162 30.5569C32.7417 30.136 33.2101 29.5801 33.5266 28.9374L37.022 21.9393L37.0342 21.9588L40.4759 28.9349C41.117 30.2414 42.3625 31.1457 43.8007 31.3529Z" fill="#2B90FB"/>
<path d="M70.6452 23.3285C70.4254 22.7899 70.0007 22.3608 69.4645 22.1355C68.9283 21.9101 68.3245 21.907 67.786 22.1268C67.2475 22.3466 66.8184 22.7713 66.593 23.3075C66.3677 23.8437 66.3645 24.4474 66.5843 24.986C68.1395 28.808 68.9316 32.8493 68.9316 37.0004C68.9316 54.6089 54.6089 68.9316 37.0004 68.9316C19.3919 68.9316 5.06914 54.6089 5.06914 37.0004C5.06914 19.3919 19.3919 5.06914 37.0004 5.06914C38.3751 5.06914 39.8669 5.16908 41.4269 5.36652C42.003 5.43509 42.583 5.27443 43.0418 4.9192C43.5005 4.56398 43.8012 4.04266 43.879 3.4677C43.9522 2.89077 43.7933 2.30839 43.4372 1.84858C43.0812 1.38876 42.5571 1.08914 41.9802 1.01558C40.3289 0.799897 38.6657 0.688364 37.0004 0.681641C16.9739 0.681641 0.681641 16.9739 0.681641 37.0004C0.681641 57.0269 16.9739 73.3191 37.0004 73.3191C57.0269 73.3191 73.3191 57.0269 73.3191 37.0004C73.3191 32.279 72.4197 27.6794 70.6452 23.3285Z" fill="#2B90FB"/>
<path d="M58.6622 19.7673C54.143 18.3267 48.2443 13.9831 48.917 8.66935C49.6068 3.21423 55.2423 1.76879 58.6622 5.43235C62.082 1.76879 67.7175 3.21423 68.4073 8.66935C69.0776 13.9855 63.1813 18.3243 58.6622 19.7673Z" fill="white"/>
<path d="M57.9948 21.8588C58.4289 21.9948 58.8941 21.9948 59.3281 21.8588C64.1398 20.3183 71.4523 15.3044 70.5796 8.39405C70.1579 5.05224 68.1884 2.50018 65.3122 1.56905C63.0843 0.847554 60.6688 1.23755 58.6603 2.5733C56.6518 1.23755 54.2362 0.854866 52.0059 1.56905C49.1296 2.50018 47.1601 5.05224 46.7385 8.39649C45.8658 15.3141 53.1808 20.3232 57.9948 21.8588ZM53.3563 5.74449C53.6609 5.64699 53.973 5.59824 54.285 5.59824C55.26 5.59824 56.2496 6.06137 57.0588 6.92912C57.8925 7.8188 59.4354 7.8188 60.2666 6.92912C61.3366 5.78349 62.7211 5.34718 63.9691 5.74449C65.2001 6.14424 66.0264 7.3118 66.2336 8.94493C66.704 12.706 62.2117 16.0941 58.6627 17.4469C55.1161 16.0941 50.619 12.7133 51.0943 8.94737C51.2966 7.30937 52.1229 6.14424 53.3563 5.74449Z" fill="#2B90FB"/>
</svg>
