<svg width="80" height="62" viewBox="0 0 80 62" fill="none" xmlns="http://www.w3.org/2000/svg">
<path d="M65.667 58.9326L76.7498 18.8436L58.2855 31.0735L39.9998 3.06738L21.714 31.0735L3.24976 18.8436L14.3325 58.9326H65.667Z" fill="#D1E8FD"/>
<path d="M46.9032 39.0693L39.9995 48.8107L33.0957 39.0693L39.9995 29.3516L46.9032 39.0693Z" fill="white"/>
<path d="M78.1359 16.9326C77.7467 16.6496 77.2803 16.4926 76.7992 16.4827C76.3182 16.4729 75.8456 16.6106 75.4453 16.8775L58.9655 27.7922L41.9791 1.77846C41.7637 1.45069 41.4703 1.18154 41.1252 0.995212C40.7801 0.808881 40.3941 0.711198 40.0019 0.710938C39.6097 0.710678 39.2236 0.807849 38.8782 0.993722C38.5328 1.17959 38.2391 1.44835 38.0232 1.77584L21.0369 27.7896L4.55712 16.8722C4.15595 16.607 3.68339 16.4705 3.20257 16.4809C2.72176 16.4914 2.2556 16.6484 1.86638 16.9309C1.47716 17.2134 1.18343 17.608 1.02444 18.0618C0.865446 18.5157 0.848763 19.0073 0.97662 19.471L12.0594 59.56C12.1972 60.0583 12.4948 60.4976 12.9064 60.8106C13.318 61.1235 13.8208 61.2928 14.3379 61.2925H65.675C66.1916 61.2922 66.6939 61.1227 67.1049 60.8098C67.516 60.4969 67.8131 60.0578 67.9509 59.56L79.0336 19.4736C79.1593 19.009 79.1408 18.5171 78.9805 18.0633C78.8201 17.6095 78.5256 17.2151 78.1359 16.9326ZM63.8716 56.5675H16.1307L7.20837 24.2983L20.4069 33.0422C20.6665 33.2141 20.9576 33.3329 21.2633 33.3919C21.569 33.4508 21.8834 33.4488 22.1883 33.3858C22.4932 33.3229 22.7827 33.2003 23.0401 33.0251C23.2975 32.8499 23.5177 32.6256 23.6881 32.365L39.9999 7.39071L56.3064 32.3676C56.6529 32.8926 57.191 33.2627 57.8079 33.3913C58.4244 33.5147 59.0648 33.3902 59.5902 33.0448L72.7887 24.301L63.8716 56.5675Z" fill="#2B90FB"/>
<path d="M41.9265 27.984C41.0393 26.7371 38.9603 26.7371 38.073 27.984L31.1693 37.7017C30.8856 38.1013 30.7332 38.5793 30.7332 39.0694C30.7332 39.5594 30.8856 40.0374 31.1693 40.437L38.073 50.1784C38.2913 50.4861 38.5802 50.737 38.9154 50.9102C39.2506 51.0834 39.6225 51.1737 39.9998 51.1737C40.3771 51.1737 40.7489 51.0834 41.0841 50.9102C41.4193 50.737 41.7082 50.4861 41.9265 50.1784L48.8303 40.437C49.1136 40.0371 49.2655 39.559 49.265 39.0689C49.2646 38.5789 49.1117 38.1011 48.8276 37.7017L41.9265 27.984ZM39.9998 44.7262L35.994 39.0746L39.9998 33.4309L44.0055 39.072L39.9998 44.7262Z" fill="#2B90FB"/>
</svg>
