<svg width="74" height="72" viewBox="0 0 74 72" fill="none" xmlns="http://www.w3.org/2000/svg">
<path d="M23.2281 24.6895V68.9788H10.0169C6.06812 68.9788 2.875 65.7857 2.875 61.8613V31.807C2.875 27.8826 6.06813 24.6895 9.9925 24.6895H23.2281Z" fill="#CAE5FD"/>
<path d="M70.7598 37.6817L64.1785 61.4717C63.5735 63.6312 62.279 65.5335 60.4923 66.8889C58.7057 68.2443 56.5249 68.9784 54.2823 68.9792H23.2285V24.6898L36.3179 6.16484C37.7073 4.19047 39.9741 2.99609 42.3873 2.99609C46.6285 2.99609 49.846 6.45734 49.846 10.4305C49.846 11.113 49.7485 11.7955 49.5535 12.478L46.0923 24.6898H60.8635C67.6398 24.6898 72.5635 31.1492 70.7598 37.6817Z" fill="white"/>
<path d="M70.7695 27.415C69.6127 25.8824 68.1148 24.6403 66.3945 23.7874C64.6742 22.9344 62.7788 22.494 60.8586 22.501H49.0026L51.6693 13.0703C52.0809 11.638 52.1516 10.1293 51.8756 8.66478C51.5997 7.2003 50.9847 5.82075 50.08 4.63654C49.1862 3.44442 48.0259 2.47791 46.6918 1.81428C45.3578 1.15064 43.887 0.808274 42.397 0.814538C39.2697 0.814538 36.3276 2.33797 34.5239 4.89247L22.0829 22.4985H10.0002C7.52956 22.5011 5.16085 23.4837 3.41384 25.2307C1.66682 26.9777 0.684222 29.3465 0.681641 31.8171V61.852C0.684867 64.3261 1.6693 66.6979 3.41898 68.4471C5.16866 70.1963 7.54073 71.1801 10.0148 71.1827H54.2823C57.0055 71.1766 59.6522 70.2807 61.8193 68.6315C63.9864 66.9823 65.5553 64.6701 66.2869 62.047L72.8609 38.2765C73.3807 36.4281 73.4624 34.4839 73.0993 32.5985C72.7363 30.713 71.9386 28.9382 70.7695 27.415ZM5.06914 61.852V31.8171C5.06914 29.0993 7.27995 26.886 9.99777 26.886H21.025V66.7952H10.0148C8.70397 66.7939 7.44713 66.2728 6.51998 65.3461C5.59284 64.4194 5.07108 63.1628 5.06914 61.852ZM68.6343 37.1065L62.0603 60.877C61.586 62.5759 60.5698 64.0734 59.1662 65.1417C57.7627 66.21 56.0486 66.7906 54.2847 66.7952H25.4174V25.3821L38.1021 7.42016C38.5793 6.74636 39.2085 6.19442 39.9387 5.80903C40.6689 5.42364 41.4796 5.21564 42.3051 5.20187C43.1307 5.1881 43.9479 5.36896 44.6905 5.72978C45.4332 6.09061 46.0804 6.62127 46.5798 7.27879C47.5791 8.60235 47.896 10.2769 47.4426 11.8735L43.9887 24.0951C43.8964 24.4214 43.881 24.7646 43.9437 25.0978C44.0063 25.431 44.1454 25.7452 44.3499 26.0156C44.5545 26.286 44.8189 26.5054 45.1225 26.6564C45.4261 26.8074 45.7605 26.886 46.0996 26.886H60.8562C63.3985 26.886 65.7385 28.0463 67.279 30.0694C68.8171 32.0925 69.3119 34.6568 68.6343 37.1065Z" fill="#2B90FB"/>
<path d="M14.6315 56.1016H11.4652C10.8834 56.1016 10.3254 56.3327 9.91402 56.7441C9.50261 57.1555 9.27148 57.7135 9.27148 58.2953C9.27148 58.8771 9.50261 59.4351 9.91402 59.8465C10.3254 60.2579 10.8834 60.4891 11.4652 60.4891H14.6315C15.2134 60.4891 15.7714 60.2579 16.1828 59.8465C16.5942 59.4351 16.8253 58.8771 16.8253 58.2953C16.8253 57.7135 16.5942 57.1555 16.1828 56.7441C15.7714 56.3327 15.2134 56.1016 14.6315 56.1016Z" fill="#2B90FB"/>
</svg>
