<svg width="82" height="82" viewBox="0 0 82 82" fill="none" xmlns="http://www.w3.org/2000/svg">
<path d="M75.5552 44.0418L68.5877 50.5608C67.7113 51.3808 67.2296 52.5416 67.2706 53.7408L67.5883 63.281C67.6678 65.6898 65.6947 67.6629 63.2859 67.5835L53.7457 67.2657C53.1524 67.2457 52.5616 67.3529 52.0131 67.5801C51.4646 67.8073 50.9711 68.1492 50.5657 68.5828L44.0467 75.5503C43.6569 75.967 43.1857 76.2992 42.6622 76.5263C42.1388 76.7535 41.5743 76.8707 41.0037 76.8707C40.4331 76.8707 39.8686 76.7535 39.3451 76.5263C38.8217 76.2992 38.3505 75.967 37.9607 75.5503L31.4417 68.5828C31.0362 68.1493 30.5426 67.8075 29.9941 67.5803C29.4457 67.3531 28.855 67.2459 28.2617 67.2657L18.7215 67.5835C18.1514 67.6024 17.5834 67.504 17.0529 67.2945C16.5223 67.085 16.0405 66.7687 15.6371 66.3654C15.2338 65.962 14.9175 65.4801 14.708 64.9496C14.4985 64.4191 14.4001 63.8511 14.419 63.281L14.7368 53.7408C14.7568 53.1475 14.6496 52.5567 14.4224 52.0082C14.1952 51.4598 13.8533 50.9662 13.4197 50.5608L6.45222 44.0418C6.0355 43.652 5.70328 43.1808 5.47616 42.6573C5.24903 42.1339 5.13184 41.5694 5.13184 40.9988C5.13184 40.4282 5.24903 39.8637 5.47616 39.3403C5.70328 38.8168 6.0355 38.3456 6.45222 37.9558L13.4197 31.4368C14.296 30.6168 14.7778 29.456 14.7368 28.2568L14.4139 18.7166C14.395 18.1465 14.4934 17.5786 14.7029 17.048C14.9124 16.5175 15.2286 16.0356 15.632 15.6322C16.0353 15.2289 16.5172 14.9127 17.0478 14.7031C17.5783 14.4936 18.1462 14.3952 18.7163 14.4141L28.2565 14.7319C29.4583 14.7729 30.6166 14.2911 31.4366 13.4148L37.9556 6.44733C38.3454 6.03062 38.8166 5.6984 39.34 5.47128C39.8635 5.24415 40.428 5.12695 40.9986 5.12695C41.5692 5.12695 42.1337 5.24415 42.6571 5.47128C43.1805 5.6984 43.6518 6.03062 44.0415 6.44733L50.5605 13.4148C51.3805 14.2911 52.5413 14.7729 53.7406 14.7319L63.2808 14.4141C65.6895 14.3347 67.6627 16.3078 67.5832 18.7166L67.2655 28.2568C67.2245 29.4586 67.7062 30.6168 68.5826 31.4368L75.55 37.9558C77.3156 39.6035 77.3156 42.3966 75.5552 44.0418Z" fill="white"/>
<path d="M75.5552 44.0418L68.5877 50.5608C67.7113 51.3808 67.2296 52.5416 67.2706 53.7408L67.5883 63.281C67.6678 65.6898 65.6947 67.6629 63.2859 67.5835L53.7457 67.2657C53.1524 67.2457 52.5616 67.3529 52.0131 67.5801C51.4646 67.8073 50.9711 68.1492 50.5657 68.5828L44.0467 75.5503C43.6569 75.967 43.1857 76.2992 42.6622 76.5263C42.1388 76.7535 41.5743 76.8707 41.0037 76.8707C40.4331 76.8707 39.8686 76.7535 39.3451 76.5263C38.8217 76.2992 38.3505 75.967 37.9607 75.5503L31.4417 68.5828C31.0362 68.1493 30.5426 67.8075 29.9941 67.5803C29.4457 67.3531 28.855 67.2459 28.2617 67.2657L18.7215 67.5835C18.1514 67.6024 17.5834 67.504 17.0529 67.2945C16.5223 67.085 16.0405 66.7687 15.6371 66.3654C15.2338 65.962 14.9175 65.4801 14.708 64.9496C14.4985 64.4191 14.4001 63.8511 14.419 63.281L14.7368 53.7408C14.7568 53.1475 14.6496 52.5567 14.4224 52.0082C14.1952 51.4598 13.8533 50.9662 13.4197 50.5608L6.45222 44.0418C6.0355 43.652 5.70328 43.1808 5.47616 42.6573C5.24903 42.1339 5.13184 41.5694 5.13184 40.9988C5.13184 40.4282 5.24903 39.8637 5.47616 39.3403C5.70328 38.8168 6.0355 38.3456 6.45222 37.9558L13.4197 31.4368C14.296 30.6168 14.7778 29.456 14.7368 28.2568L14.4139 18.7166C14.395 18.1465 14.4934 17.5786 14.7029 17.048C14.9124 16.5175 15.2286 16.0356 15.632 15.6322C16.0353 15.2289 16.5172 14.9127 17.0478 14.7031C17.5783 14.4936 18.1462 14.3952 18.7163 14.4141L28.2565 14.7319C29.4583 14.7729 30.6166 14.2911 31.4366 13.4148L37.9556 6.44733C38.3454 6.03062 38.8166 5.6984 39.34 5.47128C39.8635 5.24415 40.428 5.12695 40.9986 5.12695C41.5692 5.12695 42.1337 5.24415 42.6571 5.47128C43.1805 5.6984 43.6518 6.03062 44.0415 6.44733L50.5605 13.4148C51.3805 14.2911 52.5413 14.7729 53.7406 14.7319L63.2808 14.4141C65.6895 14.3347 67.6627 16.3078 67.5832 18.7166L67.2655 28.2568C67.2245 29.4586 67.7062 30.6168 68.5826 31.4368L75.55 37.9558C77.3156 39.6035 77.3156 42.3966 75.5552 44.0418Z" fill="#D1E8FD"/>
<path d="M77.1309 36.272L70.1609 29.7504C69.9673 29.57 69.8147 29.3502 69.7135 29.1057C69.6122 28.8612 69.5647 28.5978 69.5741 28.3334L69.8918 18.7932C69.9197 17.9078 69.7663 17.026 69.4411 16.202C69.1159 15.3779 68.6257 14.6291 68.0007 14.0013C67.3775 13.3701 66.6294 12.8759 65.8043 12.5502C64.9791 12.2246 64.0951 12.0747 63.2088 12.1102L53.6635 12.428C53.3991 12.4322 53.1367 12.3821 52.8925 12.2807C52.6482 12.1793 52.4275 12.0288 52.2439 11.8386L45.7274 4.86858C43.2905 2.25995 38.7113 2.25995 36.2744 4.86858L29.7554 11.8386C29.3786 12.2145 28.868 12.4256 28.3357 12.4254L18.793 12.1102C16.9326 12.0385 15.2619 12.7406 14.0011 14.0013C12.7404 15.2621 12.0485 17.0097 12.11 18.7932L12.4277 28.3359C12.4365 28.6009 12.3884 28.8647 12.2868 29.1096C12.1851 29.3544 12.0322 29.5747 11.8384 29.7556L4.87348 36.272C3.56661 37.4918 2.81836 39.2138 2.81836 40.9998C2.81836 42.7859 3.56661 44.5079 4.87092 45.7276L11.8409 52.2466C12.0339 52.428 12.1861 52.6485 12.2872 52.8932C12.3884 53.138 12.4363 53.4015 12.4277 53.6663L12.11 63.2065C12.0821 64.0919 12.2354 64.9737 12.5607 65.7977C12.8859 66.6217 13.376 67.3706 14.0011 67.9983C14.6234 68.6308 15.3713 69.1259 16.1967 69.4517C17.022 69.7774 17.9065 69.9265 18.793 69.8895L28.3357 69.5717C28.8764 69.5999 29.3889 69.769 29.7554 70.1611L36.2744 77.1285C37.4941 78.4328 39.2161 79.1785 41.0022 79.1785C42.7882 79.1785 44.5102 78.4303 45.73 77.1285L52.249 70.1585C52.4318 69.9673 52.6525 69.8164 52.8969 69.7154C53.1413 69.6143 53.4042 69.5654 53.6686 69.5717L63.2114 69.8895C65.041 69.9561 66.7425 69.2591 68.0032 67.9983C69.264 66.7376 69.9559 64.9899 69.8944 63.2065L69.5766 53.6637C69.5679 53.3987 69.6159 53.1349 69.7176 52.8901C69.8193 52.6452 69.9721 52.4249 70.166 52.2441L77.1309 45.7276C78.4326 44.5079 79.1809 42.7859 79.1809 40.9998C79.1809 39.2138 78.4326 37.4918 77.1309 36.272ZM73.979 42.358L67.0116 48.8769C66.3376 49.5074 65.8061 50.2745 65.4525 51.127C65.099 51.9795 64.9316 52.8976 64.9616 53.82L65.2793 63.3628C65.2972 63.8829 65.1051 64.3724 64.7361 64.7388C64.3671 65.1053 63.852 65.2641 63.36 65.2821L53.8147 64.9643C52.8933 64.9372 51.9766 65.1056 51.125 65.4586C50.2734 65.8115 49.5063 66.3408 48.8742 67.0118L42.3577 73.9792C42.1805 74.16 41.969 74.3036 41.7355 74.4016C41.5021 74.4996 41.2515 74.5501 40.9983 74.5501C40.7452 74.5501 40.4945 74.4996 40.2611 74.4016C40.0277 74.3036 39.8162 74.16 39.6389 73.9792L33.1199 67.0118C32.5149 66.3642 31.7833 65.8478 30.9705 65.4947C30.1576 65.1416 29.2809 64.9593 28.3947 64.9592L28.1769 64.9618L18.6341 65.2795C18.123 65.2844 17.6301 65.0895 17.2606 64.7363C17.0785 64.5573 16.9358 64.3422 16.8418 64.1047C16.7478 63.8673 16.7045 63.6128 16.7148 63.3576L17.0325 53.8175C17.0628 52.8953 16.8959 51.9772 16.5428 51.1248C16.1897 50.2723 15.6586 49.5051 14.9851 48.8744L8.02024 42.358C7.63842 42.0018 7.43086 41.52 7.43086 40.9998C7.43086 40.4796 7.63842 39.9979 8.02024 39.6417L14.9851 33.1253C15.6591 32.4948 16.1906 31.7277 16.5441 30.8752C16.8977 30.0227 17.0651 29.1046 17.0351 28.1822L16.7174 18.6395C16.7076 18.3848 16.7506 18.1309 16.8437 17.8936C16.9367 17.6564 17.0777 17.4409 17.2579 17.2607C17.4381 17.0805 17.6536 16.9395 17.8908 16.8464C18.1281 16.7534 18.382 16.7104 18.6367 16.7201L28.182 17.0379C29.1041 17.0703 30.0224 16.9043 30.8747 16.5511C31.7271 16.1978 32.4936 15.6656 33.1225 14.9905L39.6415 8.02045C39.8187 7.83969 40.0303 7.6961 40.2637 7.59807C40.4971 7.50004 40.7477 7.44955 41.0009 7.44955C41.2541 7.44955 41.5047 7.50004 41.7381 7.59807C41.9715 7.6961 42.183 7.83969 42.3603 8.02045L48.8793 14.9879C49.5105 15.6609 50.2777 16.1918 51.13 16.5453C51.9823 16.8988 52.9001 17.0667 53.8224 17.0379L63.3651 16.7201C63.6186 16.7152 63.8706 16.7607 64.1064 16.854C64.3422 16.9472 64.5571 17.0864 64.7386 17.2634C65.1102 17.6324 65.3024 18.1193 65.2844 18.642L64.9667 28.1822C64.9361 29.1041 65.103 30.0218 65.4561 30.8739C65.8092 31.726 66.3404 32.4927 67.0141 33.1227L73.9841 39.6417C74.3608 39.9979 74.5684 40.4796 74.5684 40.9998C74.5684 41.52 74.3608 42.0018 73.979 42.358Z" fill="#2B90FB"/>
<path d="M33.0379 36.7535C35.09 36.7535 36.7535 35.09 36.7535 33.0379C36.7535 30.9858 35.09 29.3223 33.0379 29.3223C30.9858 29.3223 29.3223 30.9858 29.3223 33.0379C29.3223 35.09 30.9858 36.7535 33.0379 36.7535Z" fill="#2B90FB"/>
<path d="M46.3326 46.3324C45.6356 47.03 45.2444 47.9759 45.2448 48.9621C45.2453 49.9482 45.6375 50.8937 46.3351 51.5907C47.0328 52.2876 47.9787 52.6789 48.9648 52.6784C49.9509 52.6779 50.8964 52.2857 51.5934 51.5881C52.2903 50.8905 52.6816 49.9445 52.6811 48.9584C52.6807 47.9723 52.2885 47.0268 51.5908 46.3298C50.8932 45.6329 49.9473 45.2416 48.9612 45.2421C47.9751 45.2426 47.0295 45.6348 46.3326 46.3324ZM51.2808 30.7217C51.0666 30.5074 50.8123 30.3375 50.5325 30.2215C50.2526 30.1056 49.9527 30.0459 49.6497 30.0459C49.3468 30.0459 49.0469 30.1056 48.767 30.2215C48.4871 30.3375 48.2329 30.5074 48.0187 30.7217L30.7218 48.0185C30.397 48.3402 30.1754 48.7514 30.0852 49.1996C29.9951 49.6478 30.0405 50.1127 30.2156 50.5349C30.3907 50.9572 30.6877 51.3178 31.0685 51.5706C31.4494 51.8235 31.897 51.9571 32.3541 51.9545C32.6574 51.955 32.9578 51.8955 33.2379 51.7794C33.518 51.6633 33.7725 51.4929 33.9865 51.278L51.2833 33.9811C51.7149 33.5484 51.957 32.962 51.9565 32.3509C51.956 31.7397 51.713 31.1537 51.2808 30.7217Z" fill="#2B90FB"/>
</svg>
