<svg width="237" height="37" viewBox="0 0 237 37" fill="none" xmlns="http://www.w3.org/2000/svg">
<g clip-path="url(#clip0_1_349)">
<path d="M201.97 0H197.329V9.34H193V13.6418H197.329V36H201.97V13.6418H207V9.34H201.97V0Z" fill="black"/>
<path d="M233.296 13.4594C231.982 12.0508 230.388 10.9275 228.615 10.1601C226.842 9.39262 224.928 8.99765 222.994 9.00001C221.06 9.00237 219.147 9.40202 217.376 10.1738C215.605 10.9456 214.014 12.0728 212.703 13.4845C210.285 16.1416 208.963 19.6048 209.001 23.1852C209.038 26.7655 210.433 30.2007 212.906 32.8072C215.516 35.5862 218.916 36.9987 223.012 36.9987C225.011 37.0254 226.993 36.6326 228.828 35.8461V30.3971C228.449 30.7127 228.042 30.9933 227.612 31.2354C226.2 32.0108 224.613 32.4176 223 32.4176C221.386 32.4176 219.799 32.0108 218.388 31.2354C216.99 30.4436 215.841 29.2829 215.068 27.8823C214.248 26.4414 213.82 24.8134 213.827 23.1585C213.799 21.9165 214.026 20.682 214.493 19.5294C214.959 18.3768 215.657 17.3299 216.542 16.4521C217.371 15.5799 218.371 14.8851 219.481 14.4102C220.59 13.9353 221.785 13.6903 222.993 13.6903C224.202 13.6903 225.397 13.9353 226.506 14.4102C227.616 14.8851 228.616 15.5799 229.445 16.4521C230.333 17.3284 231.032 18.3747 231.501 19.5276C231.969 20.6804 232.196 21.9157 232.169 23.1585C232.169 23.389 232.143 33.7461 232.143 33.7461C232.468 33.4569 232.785 33.1551 233.089 32.8282C235.565 30.218 236.961 26.7789 236.999 23.1944C237.038 19.6098 235.716 16.1421 233.296 13.4803V13.4594Z" fill="black"/>
<path d="M172.343 31.2031C171.228 30.442 170.415 29.3052 170.048 27.9943C169.766 27.0047 169.639 25.096 169.639 22.3468V10H165V22.7111C165 26.392 165.408 29.0915 166.246 30.9671C167.057 32.8185 168.412 34.3713 170.125 35.414C171.836 36.4656 173.98 36.9998 176.496 36.9998C177.676 37.0067 178.853 36.8677 180 36.5857V31.5758C178.915 32.1467 177.706 32.4314 176.484 32.4039C175.015 32.4433 173.569 32.0241 172.343 31.2031Z" fill="black"/>
<path d="M184.052 10L184 35C185.607 33.9752 186.882 32.5422 187.681 30.8628C188.569 29.0245 189 26.4048 189 22.8557V10H184.052Z" fill="black"/>
<path d="M108.962 13.1554C107.713 11.8412 106.2 10.7982 104.521 10.0927C102.842 9.38721 101.033 9.03465 99.2081 9.0574C97.1582 9.038 95.1315 9.48738 93.2863 10.3704C91.9922 11.0071 90.8074 11.8411 89.7755 12.8418V0H85V36.3425H89.5556V23.0031C89.5533 22.9627 89.5533 22.9222 89.5556 22.8819C89.5314 21.2115 89.9453 19.5634 90.7569 18.0981C91.5586 16.69 92.7424 15.5313 94.1746 14.7528C95.6078 13.932 97.2346 13.4993 98.8909 13.4983C100.502 13.4988 102.082 13.9324 103.463 14.7528C104.899 15.594 106.08 16.8014 106.881 18.2486C107.714 19.6881 108.152 21.3176 108.152 22.9759C108.152 24.6342 107.714 26.2638 106.881 27.7033C106.094 29.1277 104.931 30.3146 103.516 31.1378C102.101 31.961 100.486 32.3897 98.8444 32.3783C96.6572 32.4313 94.5289 31.6753 92.876 30.2582V35.4476C92.9648 35.4936 93.0452 35.5522 93.134 35.5982C94.9815 36.5426 97.0354 37.0237 99.1151 36.999C100.946 37.0211 102.762 36.6701 104.449 35.9679C106.137 35.2657 107.66 34.2274 108.924 32.9178C110.238 31.6356 111.276 30.1042 111.976 28.4155C112.676 26.7268 113.023 24.9157 112.998 23.0909C113.033 21.252 112.694 19.4249 112 17.7181C111.307 16.0113 110.274 14.4597 108.962 13.1554Z" fill="black"/>
<path d="M74.2583 9.64653V12.9415C73.2909 11.9217 72.1622 11.065 70.9167 10.4053C69.0557 9.45812 66.9894 8.97602 64.8975 9.00095C63.0654 8.97919 61.2484 9.33119 59.5595 10.0351C57.8705 10.7389 56.3457 11.7796 55.0799 13.0924C53.7655 14.3748 52.7266 15.9076 52.0258 17.5985C51.325 19.2894 50.9769 21.1034 51.0023 22.9312C50.9686 24.7755 51.3087 26.6077 52.0026 28.3194C52.6965 30.031 53.73 31.5872 55.0418 32.8957C57.0349 34.9285 59.6215 36.2902 62.4369 36.7888C65.2523 37.2875 68.1546 36.8979 70.7348 35.675C70.8701 35.608 70.997 35.5325 71.1282 35.4613V30.3972C70.7301 30.7121 70.3055 30.9926 69.8592 31.2357C68.7951 31.853 67.6168 32.2524 66.3941 32.4101C65.1714 32.5678 63.9292 32.4807 62.741 32.1539C61.5529 31.8271 60.4431 31.2672 59.4774 30.5075C58.5116 29.7478 57.7095 28.8037 57.1187 27.7311C56.2847 26.2953 55.8458 24.6676 55.8458 23.0108C55.8458 21.3541 56.2847 19.7264 57.1187 18.2906C57.9083 16.8648 59.072 15.6771 60.4867 14.8528C61.9014 14.0286 63.5145 13.5985 65.1555 13.608C66.3916 13.5793 67.62 13.8089 68.7606 14.282C69.9012 14.7551 70.9284 15.461 71.7753 16.3538C72.6652 17.244 73.3626 18.3045 73.8252 19.4707C74.2877 20.6368 74.5056 21.8842 74.4655 23.1366C74.4655 23.3378 74.4655 36.3625 74.4655 36.3625H79V9.64653H74.2583Z" fill="black"/>
<path d="M48 9.00816C46.5192 8.93555 45.0563 9.34922 43.8453 10.183C43.1136 10.6594 42.4464 11.2237 41.8592 11.8625V9.64521H37V36H41.8762V26.8373C41.8762 22.6096 42.0714 19.8049 42.4576 18.4439C42.9456 16.7479 43.6501 15.4945 44.5498 14.7209C45.2527 14.0368 46.1928 13.634 47.1852 13.5916C47.4597 13.6021 47.7312 13.6509 47.9915 13.7364L48 9.00816Z" fill="black"/>
<path d="M18.4965 1H16.7161L0 37H5.43305L17.5917 10.8706L22.1909 20.8049H16.6244L14.3728 25.6575H24.3632L29.6962 37H35L18.4965 1Z" fill="black"/>
<path d="M145.501 1H143.72L127 37H132.433L144.592 10.8706L149.191 20.8049H143.666L141.385 25.6575H151.363L156.696 37H162L145.501 1Z" fill="black"/>
</g>
<defs>
<clipPath id="clip0_1_349">
<rect width="237" height="37" fill="white"/>
</clipPath>
</defs>
</svg>
