<svg width="86" height="86" viewBox="0 0 86 86" fill="none" xmlns="http://www.w3.org/2000/svg">
<path d="M82 43.5C82 64.763 64.763 82 43.5 82C22.237 82 5 64.763 5 43.5C5 22.237 22.237 5 43.5 5C64.763 5 82 22.237 82 43.5Z" fill="#D1E8FD" stroke="#2B90FB" stroke-width="4"/>
<path d="M36.9033 51.8124L38.3332 53.2747L39.7631 51.8124L61.8783 29.1969L60.4595 27.8096L61.8783 29.1969C61.9422 29.1315 62.0157 29.082 62.0934 29.0492C62.171 29.0163 62.2525 29 62.3337 29C62.4149 29 62.4964 29.0163 62.574 29.0491L63.3518 27.2127L62.574 29.0492C62.6516 29.082 62.7251 29.1315 62.7891 29.1969C62.8532 29.2624 62.9063 29.3426 62.9433 29.434C62.9804 29.5255 63 29.6251 63 29.7266C63 29.8282 62.9804 29.9278 62.9433 30.0192C62.9063 30.1107 62.8532 30.1908 62.7891 30.2564L38.7886 54.7998L38.7846 54.8039C38.7213 54.8691 38.6484 54.9183 38.5714 54.9511C38.4945 54.9838 38.4137 55 38.3332 55C38.2527 55 38.1719 54.9838 38.095 54.9511C38.018 54.9183 37.9451 54.8691 37.8818 54.8039L37.8778 54.7998L27.2109 43.8916C27.1468 43.8261 27.0937 43.7459 27.0567 43.6545L25.2131 44.4012L27.0567 43.6545C27.0196 43.563 27 43.4635 27 43.3619C27 43.2604 27.0196 43.1608 27.0567 43.0693C27.0937 42.9779 27.1468 42.8977 27.2109 42.8322C27.2749 42.7668 27.3484 42.7173 27.426 42.6844C27.5036 42.6516 27.5851 42.6353 27.6663 42.6353C27.7475 42.6353 27.829 42.6516 27.9066 42.6844C27.9843 42.7173 28.0578 42.7668 28.1217 42.8322L29.4575 41.526L28.1217 42.8322L36.9033 51.8124Z" fill="#ECF7FD" stroke="#2B90FB" stroke-width="4"/>
</svg>
