<svg width="139" height="133" viewBox="0 0 139 133" fill="none" xmlns="http://www.w3.org/2000/svg">
<ellipse cx="54.6071" cy="70.1574" rx="54.6071" ry="54.8625" fill="#E6F1FF"/>
<path d="M24.4911 85.0768L23.8292 82.4211C23.5302 81.5099 22.5375 80.4176 21.8435 79.7653C21.1496 79.1131 20.7751 78.6696 19.8578 78.4375L15.2245 77.1096C15.243 75.9775 15.912 75.3835 16.5483 74.4539C17.1845 73.5243 17.4959 72.8737 18.534 72.4621L38.3911 64.4949L45.0102 73.7899H105.244C108.884 73.7897 112.127 74.4188 115.172 76.4457C118.217 78.4725 120.999 81.6857 122.453 85.0768H114.51L116.496 88.3965C117.418 89.8032 118.89 91.1804 120.467 91.7162L123.777 92.3801V98.3555H108.553C109.61 96.9461 110.372 95.4718 110.539 93.708C110.705 91.9441 110.651 89.9844 109.877 88.3965C109.103 86.8086 108.049 85.3473 106.567 84.4129C105.086 83.4784 103.016 83.085 101.272 83.085C99.5281 83.085 98.1205 83.4784 96.6388 84.4129C95.157 85.3473 93.4413 86.8086 92.6673 88.3965C91.8934 89.9844 91.8389 91.9441 92.0054 93.708C92.172 95.4718 92.9342 96.9461 93.9911 98.3555H46.9959C47.9833 97.0223 48.7838 95.3643 48.9816 93.708C49.1794 92.0516 48.9646 90.5949 48.3197 89.0604C47.6748 87.526 46.3245 86.077 45.0102 85.0768C43.6958 84.0766 42.0075 83.2822 40.3769 83.085C38.7463 82.8878 37.2522 83.0902 35.7435 83.749C34.2348 84.4077 32.7535 85.7309 31.7721 87.0686C30.7907 88.4064 30.6387 90.0589 30.4483 91.7162C30.2579 93.3734 30.4584 94.8323 31.1102 96.3637H30.4483L15.2245 94.3719V85.0768H24.4911Z" fill="#9BC9FF"/>
<path d="M13.2384 77.7737C13.2607 76.2666 13.7136 74.3634 14.5622 73.1262C15.4108 71.889 16.4865 71.0154 17.8717 70.4705L41.0384 61.1754C46.0263 59.2134 51.5745 58.5194 56.9241 58.5196H71.486C74.6889 58.5091 77.7939 59.267 80.7527 60.5114C83.7114 61.7559 86.4395 63.5164 88.6955 65.8229L94.6527 71.7983H105.243C109.255 71.7968 113.14 72.8871 116.496 75.118C119.851 77.3489 122.177 80.6807 123.776 84.4131C123.795 84.4131 123.776 84.394 123.776 84.4131V84.4131C124.894 86.9926 125.742 90.2264 125.762 93.0442V98.3557C125.762 98.8603 125.452 99.3267 125.1 99.6836C124.749 100.04 124.274 100.347 123.776 100.347H109.876C108.826 101.544 107.347 102.347 105.905 103.003C104.464 103.659 102.852 104.331 101.272 104.331C99.6919 104.331 98.0799 103.659 96.6384 103.003C95.1969 102.347 94.3797 101.544 93.3289 100.347H47.6574C46.4642 101.705 45.3605 103.017 43.686 103.667C42.0115 104.317 40.1724 104.534 38.3908 104.331C36.6091 104.128 34.5862 103.35 33.0955 102.339C31.6049 101.329 30.6525 99.948 29.786 98.3557L14.5622 96.3639C14.108 96.3082 14.2043 96.7108 13.9003 96.3639C13.5963 96.017 13.2397 95.5002 13.2384 95.036V77.7737C13.2384 77.7547 13.2384 77.7928 13.2384 77.7737ZM58.9098 62.5032H56.9241C52.041 62.4964 46.9098 63.3543 42.3622 65.159H41.7003L46.3336 71.7983H61.5574L58.9098 62.5032ZM86.0479 68.4787C84.1365 66.5288 81.9335 64.8828 79.4289 63.8311C76.9243 62.7795 74.1966 62.4942 71.486 62.5032H62.8813L65.5289 71.7983H89.3574L86.0479 68.4787ZM121.129 87.0688H117.819L118.481 87.7327C119.174 88.7954 119.938 89.3201 121.129 89.7245L121.791 90.3885C121.627 89.3705 121.477 88.0378 121.129 87.0688ZM101.272 100.347C102.755 100.347 104.01 99.8559 105.243 99.0196C106.477 98.1834 107.985 97.0906 108.553 95.7C109.12 94.3093 108.842 93.1926 108.553 91.7163C108.263 90.24 107.616 88.7971 106.567 87.7327C105.518 86.6684 104.051 85.3707 102.596 85.077C101.14 84.7834 99.9948 85.1649 98.6241 85.7409C97.2534 86.317 96.1389 87.1451 95.3146 88.3967C94.4903 89.6482 93.9908 91.539 93.9908 93.0442C93.9908 95.0626 94.5697 96.9284 95.9765 98.3557C97.3833 99.7829 99.2822 100.347 101.272 100.347ZM39.7146 100.347C41.1983 100.347 42.4524 99.8559 43.686 99.0196C44.9196 98.1834 45.7659 97.0906 46.3336 95.7C46.9014 94.3093 47.285 93.1926 46.9955 91.7163C46.7061 90.24 46.0589 88.7971 45.0098 87.7327C43.9607 86.6684 42.4936 85.3707 41.0384 85.077C39.5832 84.7834 37.7758 85.1649 36.4051 85.7409C35.0343 86.317 33.9198 87.1451 33.0955 88.3967C32.2713 89.6482 31.7717 91.539 31.7717 93.0442C31.7717 95.0626 33.0125 96.9284 34.4194 98.3557C35.8262 99.7829 37.725 100.347 39.7146 100.347ZM17.2098 93.0442L28.4622 94.3721C28.3954 93.861 28.4703 93.5597 28.4622 93.0442C28.457 91.3785 28.4355 89.2449 29.1241 87.7327C29.8127 86.2206 31.18 85.4887 32.4336 84.4131C33.6873 83.3375 34.8209 82.1952 36.4051 81.7573C37.9892 81.3195 40.0821 81.4755 41.7003 81.7573C43.3185 82.0392 44.3222 82.8003 45.6717 83.7491C47.0212 84.6979 48.153 85.6306 48.9813 87.0688C49.8095 88.507 50.8149 90.0578 50.967 91.7163C51.1191 93.3749 50.8576 94.7953 50.3051 96.3639H90.6813C90.0743 94.641 89.7762 92.8653 90.0194 91.0524C90.2625 89.2395 90.9664 87.9005 92.0051 86.4049C93.0437 84.9092 94.3756 83.2637 95.9765 82.4213C97.5773 81.5788 99.4683 81.0934 101.272 81.0934C103.075 81.0934 104.966 81.5788 106.567 82.4213C108.168 83.2637 109.5 84.9092 110.538 86.4049C111.577 87.9005 112.281 89.2395 112.524 91.0524C112.767 92.8653 112.469 94.641 111.862 96.3639H121.791V94.3721L119.805 93.7081C117.827 93.0378 116.33 91.4838 115.172 89.7245L113.186 86.4049C112.993 86.1228 112.541 85.4202 112.524 85.077C112.508 84.7338 113.021 84.7129 113.186 84.4131C113.343 84.1071 113.557 83.9271 113.848 83.7491C114.139 83.5712 114.17 83.0828 114.51 83.0852H119.143C117.605 80.7499 115.626 79.1009 113.186 77.7737C110.746 76.4465 108.012 75.7892 105.243 75.7819H45.0098C44.7123 75.7805 44.6121 75.9209 44.3479 75.7819C44.0838 75.643 43.8586 75.3639 43.686 75.118L37.7289 66.4868L19.1955 74.4541C18.7344 74.6353 18.2262 74.7682 17.8717 75.118C17.5173 75.4678 17.4011 75.9832 17.2098 76.4459L19.8574 77.1098C21.0863 77.4156 22.2385 77.5656 23.167 78.4377C24.0955 79.3097 24.7576 80.5378 25.1527 81.7573L26.4765 84.4131C26.5695 84.6992 26.5221 85.4432 26.4765 85.7409C26.4308 86.0386 25.9889 86.1609 25.8146 86.4049C25.6439 86.6527 25.4173 86.9296 25.1527 87.0688C24.8881 87.208 24.7888 87.0701 24.4908 87.0688H17.2098V93.0442ZM17.2098 83.0852H21.8432V83.0852C21.6446 82.4777 20.9816 82.193 20.5194 81.7573C20.0571 81.3217 19.8074 80.5858 19.1955 80.4295L17.2098 79.7655V83.0852Z" fill="#1E81CE"/>
<path d="M52.2904 80.4297L59.5714 89.0609H84.7238C85.2239 89.0609 85.6939 89.3722 86.0476 89.7248C86.4012 90.0773 86.7095 90.5541 86.7095 91.0527C86.7095 91.5512 86.4012 92.028 86.0476 92.3805C85.6939 92.7331 85.2239 93.0445 84.7238 93.0445H58.2476C57.9647 93.0446 57.8406 93.1665 57.5857 93.0445C57.3307 92.9224 57.1005 92.6006 56.9238 92.3805L49.6428 83.0854C49.3302 82.696 48.9257 82.2533 48.9809 81.7576C49.0361 81.2619 49.2522 80.7413 49.6428 80.4297C50.0334 80.1181 50.4693 79.7108 50.9666 79.7658C51.4639 79.8208 51.9778 80.0403 52.2904 80.4297Z" fill="#1E81CE"/>
</svg>
