<svg width="60" height="60" viewBox="0 0 60 60" fill="none" xmlns="http://www.w3.org/2000/svg">
<path d="M25.987 33.1585L25.5238 39.5801C26.1865 39.5801 26.4735 39.2995 26.8177 38.9626L29.9246 36.0358L36.3624 40.683C37.5431 41.3315 38.3749 40.99 38.6934 39.6123L42.9192 20.0946L42.9204 20.0935C43.2949 18.3731 42.2892 17.7003 41.1388 18.1224L16.2999 27.496C14.6047 28.1446 14.6304 29.0761 16.0117 29.4981L22.3621 31.445L37.1126 22.3474C37.8068 21.8943 38.4379 22.145 37.9188 22.5981L25.987 33.1585Z" fill="#2B90FB"/>
<path d="M25.987 33.1585L25.5238 39.5801C26.1865 39.5801 26.4735 39.2995 26.8177 38.9626L29.9246 36.0358L36.3624 40.683C37.5431 41.3315 38.3749 40.99 38.6934 39.6123L42.9192 20.0946L42.9204 20.0935C43.2949 18.3731 42.2892 17.7003 41.1388 18.1224L16.2999 27.496C14.6047 28.1446 14.6304 29.0761 16.0117 29.4981L22.3621 31.445L37.1126 22.3474C37.8068 21.8943 38.4379 22.145 37.9188 22.5981L25.987 33.1585Z" fill="url(#paint0_linear_1_368)"/>
<rect x="1" y="1" width="58" height="58" rx="29" stroke="#E0E0E0" stroke-width="2"/>
<defs>
<linearGradient id="paint0_linear_1_368" x1="14.1404" y1="30.5615" x2="43.7368" y2="30.5615" gradientUnits="userSpaceOnUse">
<stop stop-color="#2B90FB"/>
<stop offset="1" stop-color="#006AD9"/>
</linearGradient>
</defs>
</svg>
