<svg width="139" height="133" viewBox="0 0 139 133" fill="none" xmlns="http://www.w3.org/2000/svg">
<ellipse cx="54.6071" cy="77.508" rx="54.6071" ry="54.8625" fill="#E6F1FF"/>
<path d="M74.6189 34.2051C74.6189 42.565 67.8753 49.3301 59.5713 49.3301C51.2673 49.3301 44.5237 42.565 44.5237 34.2051C44.5237 25.8452 51.2673 19.0801 59.5713 19.0801C67.8753 19.0801 74.6189 25.8452 74.6189 34.2051Z" fill="#E6F1FF" stroke="#2B90FB" stroke-width="3"/>
<path d="M61.4254 35.7595H53.8047V33.5933H61.3686C61.9794 33.5933 62.4813 33.4962 62.8743 33.3021C63.272 33.108 63.5655 32.8381 63.7549 32.4925C63.9491 32.1468 64.0438 31.742 64.039 31.278C64.0438 30.8234 63.9491 30.4162 63.7549 30.0564C63.5655 29.6918 63.2767 29.4053 62.8885 29.197C62.5049 28.9839 62.0173 28.8774 61.4254 28.8774H58.5703V41.2354H55.9424V26.6899H61.4254C62.5523 26.6899 63.5064 26.8935 64.2876 27.3007C65.0689 27.7032 65.6607 28.25 66.0632 28.9413C66.4704 29.6279 66.674 30.3997 66.674 31.2567C66.674 32.1468 66.468 32.9304 66.0561 33.6075C65.6441 34.2799 65.0476 34.8078 64.2663 35.1913C63.4851 35.5701 62.5381 35.7595 61.4254 35.7595ZM61.7592 36.839V39.0052H53.8047V36.839H61.7592Z" fill="#2B90FB"/>
<path d="M50.1287 34.2051C50.1287 42.565 43.385 49.3301 35.0811 49.3301C26.7771 49.3301 20.0334 42.565 20.0334 34.2051C20.0334 25.8452 26.7771 19.0801 35.0811 19.0801C43.385 19.0801 50.1287 25.8452 50.1287 34.2051Z" fill="#E6F1FF" stroke="#2B90FB" stroke-width="3"/>
<path d="M36.9352 35.7595H29.3144V33.5933H36.8783C37.4891 33.5933 37.991 33.4962 38.384 33.3021C38.7818 33.108 39.0753 32.8381 39.2647 32.4925C39.4588 32.1468 39.5535 31.742 39.5488 31.278C39.5535 30.8234 39.4588 30.4162 39.2647 30.0564C39.0753 29.6918 38.7865 29.4053 38.3982 29.197C38.0147 28.9839 37.527 28.8774 36.9352 28.8774H34.08V41.2354H31.4522V26.6899H36.9352C38.0621 26.6899 39.0161 26.8935 39.7974 27.3007C40.5786 27.7032 41.1705 28.25 41.5729 28.9413C41.9801 29.6279 42.1837 30.3997 42.1837 31.2567C42.1837 32.1468 41.9778 32.9304 41.5658 33.6075C41.1539 34.2799 40.5573 34.8078 39.7761 35.1913C38.9948 35.5701 38.0479 35.7595 36.9352 35.7595ZM37.269 36.839V39.0052H29.3144V36.839H37.269Z" fill="#2B90FB"/>
<path d="M21.8742 71.2012L25.3901 81.6236H18.3582V71.2012H21.8742Z" fill="#9BC9FF"/>
<path d="M18.3587 92.0463H21.8746L27.1485 86.8351H18.3762L18.3587 81.6239H25.3906L34.1277 75.8742C38.3106 73.1265 43.1605 71.5331 48.1756 71.2588L40.2261 77.8023C39.4342 78.4545 38.7972 79.2707 38.36 80.1931C37.9228 81.1156 37.6963 82.1218 37.6964 83.1404V85.098H85.1617L104.06 88.8327C107.312 89.4727 110.232 91.2258 112.305 93.7834H104.499L108.015 98.9946H115.047L116.805 100.732V105.943H100.242C100.829 104.621 101.074 103.175 100.954 101.736C100.833 100.297 100.352 98.9106 99.5532 97.7017C98.7542 96.4928 97.6629 95.4998 96.3779 94.8125C95.0929 94.1252 93.6547 93.7652 92.1935 93.7652C90.7324 93.7652 89.2942 94.1252 88.0092 94.8125C86.7242 95.4998 85.6329 96.4928 84.8339 97.7017C84.035 98.9106 83.5537 100.297 83.4335 101.736C83.3133 103.175 83.558 104.621 84.1455 105.943H42.2302C42.8053 104.697 43.0751 103.335 43.0177 101.966C42.9603 100.598 42.5773 99.2625 41.8998 98.0679C41.2224 96.8732 40.2694 95.8532 39.1184 95.0905C37.9674 94.3278 36.6506 93.844 35.2749 93.6782C33.8992 93.5124 32.5033 93.6693 31.2005 94.1362C29.8976 94.6032 28.7245 95.367 27.7763 96.3657C26.8281 97.3644 26.1315 98.5699 25.7429 99.8844C25.3544 101.199 25.2848 102.585 25.54 103.931H25.5312L14.8427 98.9946V92.0463H18.3587Z" fill="#9BC9FF"/>
<path d="M55.2761 88.5713H58.7921C59.2583 88.5713 59.7055 88.7543 60.0352 89.0801C60.3648 89.4058 60.55 89.8477 60.55 90.3084C60.55 90.7691 60.3648 91.2109 60.0352 91.5367C59.7055 91.8624 59.2583 92.0454 58.7921 92.0454H55.2761C54.8099 92.0454 54.3627 91.8624 54.0331 91.5367C53.7034 91.2109 53.5182 90.7691 53.5182 90.3084C53.5182 89.8477 53.7034 89.4058 54.0331 89.0801C54.3627 88.7543 54.8099 88.5713 55.2761 88.5713Z" fill="#1E81CE"/>
<path d="M14.8428 90.3088H16.6008V72.9381H14.8428C14.3766 72.9381 13.9294 72.7551 13.5997 72.4293C13.2701 72.1035 13.0848 71.6617 13.0848 71.201C13.0848 70.7403 13.2701 70.2985 13.5997 69.9727C13.9294 69.6469 14.3766 69.4639 14.8428 69.4639H21.8747C22.2424 69.4666 22.6002 69.5815 22.8992 69.793C23.1982 70.0045 23.4237 70.3021 23.5448 70.6451L26.3224 78.9136L33.1609 74.432C37.1432 71.7892 41.7166 70.1437 46.4863 69.6376C46.9135 69.5925 56.6826 69.4639 56.6826 69.4639C63.0009 69.4508 69.159 71.4283 74.2623 75.1094L85.8825 83.4647L104.394 87.1299C108.058 87.8442 111.348 89.8201 113.676 92.7059C114.649 93.8957 115.431 95.2255 115.997 96.6491L116.542 98.0214L118.053 99.4979C118.377 99.8291 118.56 100.271 118.563 100.731V105.942C118.563 106.403 118.378 106.845 118.048 107.171C117.719 107.496 117.272 107.679 116.805 107.679H101.318C100.394 109.264 99.0648 110.58 97.463 111.495C95.8613 112.41 94.0438 112.891 92.1936 112.891C90.3435 112.891 88.526 112.41 86.9242 111.495C85.3225 110.58 83.993 109.264 83.0698 107.679H43.3044C42.263 109.466 40.7078 110.906 38.8364 111.818C36.965 112.729 34.8617 113.071 32.7935 112.799C30.7253 112.528 28.7854 111.655 27.2201 110.292C25.6548 108.929 24.5347 107.137 24.0019 105.143L14.1045 100.575C13.7993 100.435 13.5411 100.212 13.3603 99.9321C13.1796 99.6519 13.084 99.3264 13.0848 98.9941V92.0458C13.0848 91.5851 13.2701 91.1433 13.5997 90.8176C13.9294 90.4918 14.3766 90.3088 14.8428 90.3088ZM20.609 72.9381H20.1167V79.8864H22.9471L20.609 72.9381ZM50.0023 72.9381C50.0023 72.9381 49.1409 72.9554 48.842 72.9728L41.3531 79.1394C40.7574 79.6253 40.2781 80.2356 39.9498 80.9264C39.6215 81.6173 39.4524 82.3715 39.4544 83.1347V83.3605H50.0023V72.9381ZM72.1879 77.9235C67.6891 74.6717 62.2566 72.925 56.6826 72.9381H53.5182V83.3605H79.7648L72.1879 77.9235ZM111.391 95.52H107.787L108.965 97.2571H112.393C112.111 96.6503 111.775 96.0691 111.391 95.52ZM92.1936 109.417C93.5844 109.417 94.944 109.009 96.1003 108.246C97.2567 107.482 98.158 106.397 98.6903 105.127C99.2225 103.858 99.3617 102.461 99.0904 101.113C98.8191 99.7649 98.1494 98.5268 97.1659 97.5551C96.1825 96.5834 94.9295 95.9216 93.5655 95.6535C92.2014 95.3854 90.7876 95.523 89.5026 96.0489C88.2177 96.5748 87.1195 97.4654 86.3468 98.608C85.5742 99.7506 85.1617 101.094 85.1617 102.468C85.1617 104.311 85.9026 106.078 87.2213 107.381C88.5401 108.685 90.3287 109.417 92.1936 109.417ZM34.1805 109.417C35.5713 109.417 36.9308 109.009 38.0872 108.246C39.2436 107.482 40.1449 106.397 40.6771 105.127C41.2094 103.858 41.3486 102.461 41.0773 101.113C40.806 99.7649 40.1362 98.5268 39.1528 97.5551C38.1694 96.5834 36.9164 95.9216 35.5524 95.6535C34.1883 95.3854 32.7744 95.523 31.4895 96.0489C30.2046 96.5748 29.1064 97.4654 28.3337 98.608C27.561 99.7506 27.1486 101.094 27.1486 102.468C27.1486 104.311 27.8895 106.078 29.2082 107.381C30.527 108.685 32.3155 109.417 34.1805 109.417ZM16.6008 97.8824L23.7206 101.183C24.0649 98.5618 25.4041 96.168 27.4671 94.4857C29.5301 92.8035 32.1629 91.9585 34.8326 92.1219C37.5023 92.2853 40.0094 93.4447 41.8467 95.3656C43.6839 97.2865 44.714 99.8253 44.7284 102.468C44.7201 103.05 44.6672 103.631 44.5701 104.205H81.804C81.707 103.631 81.6541 103.05 81.6458 102.468C81.6458 99.7041 82.7571 97.0531 84.7352 95.0985C86.7133 93.1439 89.3962 92.0458 92.1936 92.0458C94.9911 92.0458 97.674 93.1439 99.6521 95.0985C101.63 97.0531 102.741 99.7041 102.741 102.468C102.733 103.05 102.68 103.631 102.583 104.205H115.047V101.443L114.327 100.731H108.015C107.726 100.73 107.441 100.658 107.187 100.521C106.932 100.385 106.716 100.188 106.556 99.9495L103.04 94.7383C102.859 94.4808 102.755 94.1782 102.739 93.8649C102.724 93.5516 102.797 93.2403 102.952 92.9665C103.099 92.6871 103.322 92.4533 103.595 92.2909C103.868 92.1284 104.181 92.0436 104.499 92.0458H107.664C106.441 91.3247 105.104 90.8137 103.708 90.5346L84.9859 86.8346H37.6965C37.2302 86.8346 36.7831 86.6516 36.4534 86.3259C36.1237 86.0001 35.9385 85.5583 35.9385 85.0976V83.1347C35.939 81.8616 36.2227 80.6043 36.7695 79.4516C37.3163 78.2989 38.1129 77.2791 39.1028 76.4643L41.9859 74.0845C39.548 74.8398 37.2286 75.9272 35.0947 77.3155L26.3575 83.0652C26.0731 83.2583 25.7358 83.3613 25.3907 83.3605H20.1167L20.1343 85.0976H27.1486C27.4964 85.0963 27.8365 85.1982 28.1249 85.3903C28.4133 85.5823 28.6366 85.8556 28.766 86.1745C28.9006 86.4909 28.9374 86.8395 28.8717 87.1765C28.806 87.5135 28.6407 87.8237 28.3968 88.068L23.1229 93.2792C22.7876 93.5991 22.3408 93.7795 21.8747 93.7829H16.6008V97.8824ZM20.1343 88.5717L20.1519 90.3088H21.1539L22.9119 88.5717H20.1343Z" fill="#1E81CE"/>
</svg>
