<svg width="60" height="60" viewBox="0 0 60 60" fill="none" xmlns="http://www.w3.org/2000/svg">
<path d="M44.7148 36.9468C44.6288 36.7969 44.0967 35.5939 41.5365 33.1212C38.8563 30.532 39.2164 30.9524 42.4446 26.4754C44.4108 23.7487 45.1968 22.0836 44.9508 21.3718C44.7168 20.6933 43.2707 20.8723 43.2707 20.8723L38.4623 20.9014C38.4623 20.9014 38.1063 20.8515 37.8403 21.0159C37.5823 21.1782 37.4162 21.5529 37.4162 21.5529C37.4162 21.5529 36.6542 23.6634 35.6381 25.4576C33.496 29.2436 32.6379 29.4434 32.2879 29.2082C31.4738 28.6608 31.6778 27.0061 31.6778 25.8322C31.6778 22.1627 32.2119 20.6329 30.6357 20.2375C30.1117 20.1063 29.7277 20.0189 28.3896 20.0043C26.6734 19.9856 25.2193 20.0106 24.3973 20.4289C23.8492 20.7078 23.4272 21.3302 23.6852 21.3656C24.0033 21.4093 24.7233 21.5675 25.1053 22.1086C25.5994 22.8059 25.5814 24.3752 25.5814 24.3752C25.5814 24.3752 25.8654 28.6941 24.9193 29.2311C24.2693 29.5995 23.3792 28.8481 21.4691 25.4118C20.491 23.653 19.7509 21.7069 19.7509 21.7069C19.7509 21.7069 19.6089 21.3448 19.3549 21.1512C19.0469 20.916 18.6149 20.8411 18.6149 20.8411L14.0425 20.8702C14.0425 20.8702 13.3565 20.891 13.1045 21.2011C12.8804 21.478 13.0865 22.0483 13.0865 22.0483C13.0865 22.0483 16.6667 30.763 20.719 35.1568C24.4373 39.1843 28.6576 38.92 28.6576 38.92H30.5697C30.5697 38.92 31.1478 38.8534 31.4418 38.5224C31.7138 38.2185 31.7038 37.6482 31.7038 37.6482C31.7038 37.6482 31.6658 34.9778 32.8579 34.5844C34.032 34.1973 35.5401 37.1653 37.1382 38.308C38.3463 39.1718 39.2644 38.9824 39.2644 38.9824L43.5387 38.92C43.5387 38.92 45.7749 38.7763 44.7148 36.9468Z" fill="#2B90FB"/>
<path d="M44.7148 36.9468C44.6288 36.7969 44.0967 35.5939 41.5365 33.1212C38.8563 30.532 39.2164 30.9524 42.4446 26.4754C44.4108 23.7487 45.1968 22.0836 44.9508 21.3718C44.7168 20.6933 43.2707 20.8723 43.2707 20.8723L38.4623 20.9014C38.4623 20.9014 38.1063 20.8515 37.8403 21.0159C37.5823 21.1782 37.4162 21.5529 37.4162 21.5529C37.4162 21.5529 36.6542 23.6634 35.6381 25.4576C33.496 29.2436 32.6379 29.4434 32.2879 29.2082C31.4738 28.6608 31.6778 27.0061 31.6778 25.8322C31.6778 22.1627 32.2119 20.6329 30.6357 20.2375C30.1117 20.1063 29.7277 20.0189 28.3896 20.0043C26.6734 19.9856 25.2193 20.0106 24.3973 20.4289C23.8492 20.7078 23.4272 21.3302 23.6852 21.3656C24.0033 21.4093 24.7233 21.5675 25.1053 22.1086C25.5994 22.8059 25.5814 24.3752 25.5814 24.3752C25.5814 24.3752 25.8654 28.6941 24.9193 29.2311C24.2693 29.5995 23.3792 28.8481 21.4691 25.4118C20.491 23.653 19.7509 21.7069 19.7509 21.7069C19.7509 21.7069 19.6089 21.3448 19.3549 21.1512C19.0469 20.916 18.6149 20.8411 18.6149 20.8411L14.0425 20.8702C14.0425 20.8702 13.3565 20.891 13.1045 21.2011C12.8804 21.478 13.0865 22.0483 13.0865 22.0483C13.0865 22.0483 16.6667 30.763 20.719 35.1568C24.4373 39.1843 28.6576 38.92 28.6576 38.92H30.5697C30.5697 38.92 31.1478 38.8534 31.4418 38.5224C31.7138 38.2185 31.7038 37.6482 31.7038 37.6482C31.7038 37.6482 31.6658 34.9778 32.8579 34.5844C34.032 34.1973 35.5401 37.1653 37.1382 38.308C38.3463 39.1718 39.2644 38.9824 39.2644 38.9824L43.5387 38.92C43.5387 38.92 45.7749 38.7763 44.7148 36.9468Z" fill="url(#paint0_linear_1_366)"/>
<rect x="1" y="1" width="58" height="58" rx="29" stroke="#E0E0E0" stroke-width="2"/>
<defs>
<linearGradient id="paint0_linear_1_366" x1="12.0175" y1="30.3769" x2="45.8421" y2="30.3769" gradientUnits="userSpaceOnUse">
<stop stop-color="#2B90FB"/>
<stop offset="1" stop-color="#006AD9"/>
</linearGradient>
</defs>
</svg>
